<svg xmlns="http://www.w3.org/2000/svg" xmlns:xlink="http://www.w3.org/1999/xlink" width="222" height="194" viewBox="0 0 222 194">
  <defs>
    <clipPath id="clip-center">
      <rect width="222" height="194"/>
    </clipPath>
  </defs>
  <g id="center" clip-path="url(#clip-center)">
    <g id="그룹_158" data-name="그룹 158" transform="translate(7451 22520)">
      <g id="building" transform="translate(-7471 -22545)">
        <path id="패스_65" data-name="패스 65" d="M166.213,30.882H69.578V218.27h96.635Z" fill="#fdfdfd"/>
        <path id="패스_66" data-name="패스 66" d="M232.6,61.974H166.213v156.3H232.6Z" fill="#ebebeb"/>
        <path id="패스_67" data-name="패스 67" d="M197.348,74.131h-17v29.485h17Z" fill="#a0ddf7"/>
        <path id="패스_68" data-name="패스 68" d="M218.507,74.131h-17v29.485h17Z" fill="#a0ddf7"/>
        <path id="패스_69" data-name="패스 69" d="M197.348,107.021h-17V136.5h17Z" fill="#a0ddf7"/>
        <path id="패스_70" data-name="패스 70" d="M218.507,107.021h-17V136.5h17Z" fill="#a0ddf7"/>
        <path id="패스_71" data-name="패스 71" d="M197.348,139.878h-17v29.484h17Z" fill="#a0ddf7"/>
        <path id="패스_72" data-name="패스 72" d="M218.507,139.878h-17v29.484h17Z" fill="#a0ddf7"/>
        <path id="패스_73" data-name="패스 73" d="M197.348,172.737h-17v29.485h17Z" fill="#a0ddf7"/>
        <path id="패스_74" data-name="패스 74" d="M218.507,172.737h-17v29.485h17Z" fill="#a0ddf7"/>
        <path id="패스_75" data-name="패스 75" d="M102.556,90.559a14.773,14.773,0,0,0-.788,5.645c0,.41.662.253,1.009.284,2.712,0,5.329-.063,8.01,0,.189,0,.346-.126.315-.253a7.638,7.638,0,0,1,.442-3.468c.473-1.356,2.648-3.343,4.414-1.892,1.514,1.23,1.325,3.311,1.577,5.2.063.568.568.347.914.379h2.681c.978,0,2.05.063,2.9,0,.473,0,8.8.031,9.176-.221.221-.158.1-1.734.1-2.049a11.643,11.643,0,0,0-.694-3.847l-.252-.6a14.189,14.189,0,0,0-1.829-3.122,11.232,11.232,0,0,0-2.05-2.018l-.725-.567a2.89,2.89,0,0,0-.978-.505c-.757-.221-1.545-.41-1.419-2.081.82-.221.726-.883.063-1.229a5.375,5.375,0,0,0-2.238-.473,17.2,17.2,0,0,0-3.343.158c-.6.126-3.027.6-1.86,1.229.22,1.608-6.749.568-9.46,2.428-4.983,3.122-5.992,7-5.992,7Zm22.673-9.712c-.063.347-6.653.158-6.748-.095-.126-.252,2.081-.5,3.059-.5,1.2,0,3.784-.095,3.657.567Z" fill="#ede3d0"/>
        <path id="패스_76" data-name="패스 76" d="M121.729,88.131a8.079,8.079,0,0,0-6.78-3.153c-7.411.221-10.154,6.653-10.217,11.478l-.032.032h3.248c.063-3.28,1.2-8.451,6.717-8.64a5.407,5.407,0,0,1,5.3,3.752,16.8,16.8,0,0,1,1.009,4.667v.221h.221c.978,0,2.05.063,2.9,0a1.2,1.2,0,0,0-.031-.347C124.063,95.635,123.716,90.969,121.729,88.131Z" fill="#b79a82"/>
        <path id="패스_77" data-name="패스 77" d="M120.972,96.234a16.8,16.8,0,0,0-1.009-4.667,5.408,5.408,0,0,0-5.3-3.752c-5.518.189-6.622,5.361-6.717,8.64h2.839c.189,0,.346-.126.315-.253a7.638,7.638,0,0,1,.442-3.468c.473-1.356,2.648-3.343,4.414-1.892,1.514,1.23,1.324,3.311,1.577,5.2.063.568.567.347.914.379h2.46V96.2Z" fill="#f2663c"/>
        <path id="패스_78" data-name="패스 78" d="M107.255,76.936a2.869,2.869,0,1,1-2.87-2.87A2.88,2.88,0,0,1,107.255,76.936Z" fill="#f8d62c"/>
        <path id="패스_79" data-name="패스 79" d="M138.662,65.269a1.513,1.513,0,0,1-1.513,1.513,1.514,1.514,0,1,1,1.513-1.513Z" fill="#28449c"/>
        <path id="패스_80" data-name="패스 80" d="M117.5,76.936a1.231,1.231,0,0,1-1.229,1.229,1.23,1.23,0,1,1,1.229-1.229Z" fill="#ef3924"/>
        <path id="패스_81" data-name="패스 81" d="M109.525,71.605a1.231,1.231,0,0,1-1.229,1.23,1.23,1.23,0,1,1,1.229-1.23Z" fill="#b0d235"/>
        <path id="패스_82" data-name="패스 82" d="M84.266,111.968a.314.314,0,0,1-.346-.346v-4.163h-.946a2.965,2.965,0,0,1-3.027,2.4,3.038,3.038,0,0,1-3.153-3.248,3.091,3.091,0,0,1,3.153-3.312,2.992,2.992,0,0,1,3.027,2.366h.946v-2.239a.3.3,0,0,1,.346-.347h1.42a.315.315,0,0,1,.347.347l-.253,8.167a.315.315,0,0,1-.346.347H84.3Zm-2.9-5.36c0-.946-.5-1.514-1.229-1.514-.757,0-1.23.568-1.23,1.514s.5,1.513,1.23,1.513S81.365,107.554,81.365,106.608Z" fill="#58595b"/>
        <path id="패스_83" data-name="패스 83" d="M93.127,108.246a.326.326,0,0,1-.283.379,21.994,21.994,0,0,1-4.636.378.738.738,0,0,1-.82-.788v-2.207a.7.7,0,0,1,.757-.82h2.523v-.6H87.924a.382.382,0,0,1-.41-.411v-.788a.381.381,0,0,1,.41-.409h3.847a.723.723,0,0,1,.788.819l-.063,2.05a.762.762,0,0,1-.82.82h-2.46v.63a24.809,24.809,0,0,0,3.406-.158c.252-.031.346.064.346.253l.095.788Zm-3,4.794a.754.754,0,0,1-.82-.789l-.063-2.27a.3.3,0,0,1,.347-.347h1.261a.316.316,0,0,1,.347.347V111.4l4.383.031c.252,0,.347.1.347.285v.882c0,.252-.126.347-.316.347l-5.455.1Zm4.257-3.091a.316.316,0,0,1-.347-.347l-.063-6.495a.3.3,0,0,1,.347-.347h1.419a.315.315,0,0,1,.346.347l-.126,6.495a.316.316,0,0,1-.347.347H94.389Z" fill="#58595b"/>
        <path id="패스_84" data-name="패스 84" d="M96.943,106.607a3.218,3.218,0,1,1,6.433,0,3.217,3.217,0,1,1-6.433,0Zm4.73,0a1.332,1.332,0,0,0-1.324-1.513c-.82,0-1.324.567-1.324,1.513a1.336,1.336,0,1,0,2.648,0Zm2.744,5.361a.315.315,0,0,1-.347-.346v-8.168a.3.3,0,0,1,.347-.347h1.419a.316.316,0,0,1,.347.347l-.253,8.168a.315.315,0,0,1-.347.346h-1.166Z" fill="#58595b"/>
        <path id="패스_85" data-name="패스 85" d="M108.169,108.751c-.5,0-.693-.158-.693-.694l-.158-4.572a.3.3,0,0,1,.347-.347h1.1a.316.316,0,0,1,.348.347v.978h1.166v-1.01a.3.3,0,0,1,.347-.346h1.1a.315.315,0,0,1,.347.346l-.1,4.541c0,.5-.158.694-.694.694H108.2Zm2.113-2.775h-1.166v1.166h1.166Zm4.636,7.19a.315.315,0,0,1-.347-.347v-1.8l-4.983.095a.282.282,0,0,1-.283-.283v-1.1a.283.283,0,0,1,.283-.285h6.275a.632.632,0,0,1,.694.695,19.29,19.29,0,0,1-.157,2.711.316.316,0,0,1-.347.348h-1.166Zm.441-4.163a.315.315,0,0,1-.347-.347v-2.018h-.6v2.018a.356.356,0,0,1-.378.347h-.946a.315.315,0,0,1-.347-.347l-.127-5.455a.3.3,0,0,1,.348-.347h1.229a.315.315,0,0,1,.347.347v1.829h.5v-1.923a.3.3,0,0,1,.347-.347h1.229a.316.316,0,0,1,.348.347l-.253,5.581a.316.316,0,0,1-.346.347h-.947Z" fill="#58595b"/>
        <path id="패스_86" data-name="패스 86" d="M122.013,110.3s-.348.126-.5,0a6.126,6.126,0,0,1-1.1-1.419,10.59,10.59,0,0,1-1.545,1.608c-.22.158-.473.221-.631,0l-.5-.631a.4.4,0,0,1,.031-.567,6.825,6.825,0,0,0,2.3-4.036h-1.8c-.221.063-.347-.1-.347-.316V103.8a.315.315,0,0,1,.347-.347h3.406a.5.5,0,0,1,.535.536,9.124,9.124,0,0,1-.82,3.248,10.65,10.65,0,0,0,1.482,1.671.354.354,0,0,1,.032.505l-.851.883Zm1.513,1.671a.316.316,0,0,1-.347-.346l-.063-4.005h-.757a.381.381,0,0,1-.409-.411v-.977a.381.381,0,0,1,.409-.41h.725V103.58c-.031-.221.064-.347.284-.347h1.293a.315.315,0,0,1,.347.347l-.126,8.042a.315.315,0,0,1-.347.346Zm2.3,0a.316.316,0,0,1-.347-.346v-8.168a.3.3,0,0,1,.347-.347h1.293a.315.315,0,0,1,.347.347l-.252,8.168a.316.316,0,0,1-.348.346h-1.04Z" fill="#58595b"/>
        <path id="패스_87" data-name="패스 87" d="M132.861,110.265s-.284.189-.474.126a5.674,5.674,0,0,1-1.545-.977,6.826,6.826,0,0,1-1.608,1.23.418.418,0,0,1-.631-.095l-.441-.631a.4.4,0,0,1,.127-.567,4.923,4.923,0,0,0,2.4-3.343l-2.05.095a.315.315,0,0,1-.346-.347v-.946a.315.315,0,0,1,.346-.347h.978l.158-1.325c.031-.252.188-.346.441-.315l1.041.221a.342.342,0,0,1,.314.473l-.188.946h.63a.5.5,0,0,1,.536.536,6.821,6.821,0,0,1-.883,3.248,6.527,6.527,0,0,0,1.451.631c.252.094.252.284.157.473l-.472.977Zm1.1,1.7a.315.315,0,0,1-.346-.347l-.064-3.437h-.63a.381.381,0,0,1-.41-.41V106.8a.382.382,0,0,1,.41-.411h.6v-2.838c-.032-.22.063-.347.316-.347h1.292a.316.316,0,0,1,.347.347l-.126,8.042a.315.315,0,0,1-.347.346H134Zm2.3,0a.315.315,0,0,1-.346-.347v-8.167a.3.3,0,0,1,.346-.347h1.293a.315.315,0,0,1,.347.347l-.252,8.167a.315.315,0,0,1-.347.347h-1.041Z" fill="#58595b"/>
        <path id="패스_88" data-name="패스 88" d="M143.9,105a1.854,1.854,0,0,1,.5,1.356,2.378,2.378,0,0,1-2.586,2.333,2.424,2.424,0,0,1-2.617-2.333,2.085,2.085,0,0,1,.41-1.262h-.6a.315.315,0,0,1-.347-.347V103.8a.315.315,0,0,1,.347-.347h1.766l.126-1.073c.032-.252.189-.346.441-.315l1.293.158a.343.343,0,0,1,.316.473l-.158.757h1.64a.283.283,0,0,1,.284.284v.914a.283.283,0,0,1-.284.284h-.568Zm-2.586,8.2a.53.53,0,0,1-.568-.568l-.063-2.838a.53.53,0,0,1,.568-.567l5.676-.1a.514.514,0,0,1,.567.567l-.063,3c0,.347-.22.473-.567.473h-5.55Zm1.608-6.969a.994.994,0,0,0-1.041-1.041,1.04,1.04,0,1,0,1.041,1.041Zm2.649,4.32h-2.9v1.23h2.9Zm.5-1.861a.316.316,0,0,1-.347-.346v-1.325H145a.381.381,0,0,1-.41-.41v-.915a.381.381,0,0,1,.41-.409h.694v-2.176c0-.221.095-.347.315-.347h1.419a.315.315,0,0,1,.347.347l-.126,5.235a.315.315,0,0,1-.347.346h-1.23Z" fill="#58595b"/>
        <path id="패스_89" data-name="패스 89" d="M155.155,108.656c0,.221-.126.284-.315.316a45.941,45.941,0,0,1-5.645.315.316.316,0,0,1-.347-.347v-.82a.315.315,0,0,1,.347-.346h.947v-1.7c0-.221.094-.347.314-.347h1.231a.3.3,0,0,1,.346.347v1.7c.915,0,1.829-.063,2.744-.126.221,0,.316.094.347.314l.063.694Zm-2.176-1.482c-.22,0-.315-.22-.283-.5a14.289,14.289,0,0,0,0-2.018h-3.122a.283.283,0,0,1-.284-.284v-.978a.282.282,0,0,1,.284-.283h4.32a.63.63,0,0,1,.694.693v.126a18.05,18.05,0,0,1-.252,3,.4.4,0,0,1-.442.347Zm-1.419,5.866a.753.753,0,0,1-.819-.789l-.064-2.049a.3.3,0,0,1,.348-.347h1.261a.316.316,0,0,1,.347.347v1.2h4.509c.252,0,.347.1.347.316v.913c0,.253-.126.348-.315.348l-5.582.094Zm4.383-2.933a.315.315,0,0,1-.346-.347l-.1-6.653a.3.3,0,0,1,.347-.347h1.419a.315.315,0,0,1,.347.347l-.063,2.4h.946a.381.381,0,0,1,.41.41v.946a.381.381,0,0,1-.41.41h-1.009l-.063,2.523a.316.316,0,0,1-.347.347h-1.136Z" fill="#58595b"/>
        <path id="패스_90" data-name="패스 90" d="M82.847,116.2a.8.8,0,0,0-.221-.158.934.934,0,0,0-.283-.063.842.842,0,0,0-.379.1.658.658,0,0,0-.252.316,1.226,1.226,0,0,0,0,.945.861.861,0,0,0,.252.316.674.674,0,0,0,.379.094.468.468,0,0,0,.283-.063.553.553,0,0,0,.221-.158.633.633,0,0,0,.126-.251h.379a.7.7,0,0,1-.189.409.773.773,0,0,1-.347.284,1.151,1.151,0,0,1-.473.1,1.085,1.085,0,0,1-.567-.158,1.043,1.043,0,0,1-.379-.442,1.8,1.8,0,0,1,0-1.324,1.284,1.284,0,0,1,.379-.441.861.861,0,0,1,.567-.158,1.265,1.265,0,0,1,.473.1.985.985,0,0,1,.347.283,1.106,1.106,0,0,1,.189.442h-.379a.9.9,0,0,0-.126-.252Z" fill="#58595b"/>
        <path id="패스_91" data-name="패스 91" d="M84.55,118.057H84.2v-2.4h.347v.882s.095-.188.189-.22a.566.566,0,0,1,.346-.094.52.52,0,0,1,.316.063.734.734,0,0,1,.221.221.68.68,0,0,1,.063.378v1.135h-.347v-1.1a1.022,1.022,0,0,0-.095-.315.38.38,0,0,0-.283-.094.266.266,0,0,0-.221.062.384.384,0,0,0-.158.158.6.6,0,0,0-.063.252v1.073Z" fill="#58595b"/>
        <path id="패스_92" data-name="패스 92" d="M86.726,115.944a.478.478,0,0,1-.095-.063v-.189c0-.031.063-.063.095-.063h.253c.063,0,.063.032.095.063v.189c0,.031-.063.063-.095.063h-.253Zm-.063.315h.347v1.8h-.347Z" fill="#58595b"/>
        <path id="패스_93" data-name="패스 93" d="M88.3,118.057h-.346v-2.4H88.3Z" fill="#58595b"/>
        <path id="패스_94" data-name="패스 94" d="M89.533,117.992a1.722,1.722,0,0,1-.253-.315,1.2,1.2,0,0,1-.095-.505,1.313,1.313,0,0,1,.095-.5.688.688,0,0,1,.284-.314.884.884,0,0,1,.378-.127.341.341,0,0,1,.253.063.32.32,0,0,1,.158.127.676.676,0,0,1,.095.157v-.883h.346v2.4h-.346V117.8s-.063.1-.095.158a.692.692,0,0,1-.158.126.589.589,0,0,1-.253.062.5.5,0,0,1-.378-.125Zm.063-.5a1.553,1.553,0,0,0,.157.221.36.36,0,0,0,.253.1.261.261,0,0,0,.253-.1.563.563,0,0,0,.158-.221,1.126,1.126,0,0,0,.063-.346.521.521,0,0,0-.063-.316.57.57,0,0,0-.158-.221.341.341,0,0,0-.253-.063.261.261,0,0,0-.253.1.562.562,0,0,0-.157.221.929.929,0,0,0-.063.315A.515.515,0,0,0,89.6,117.487Z" fill="#58595b"/>
        <path id="패스_95" data-name="패스 95" d="M91.772,116.258h.346v.284a1.638,1.638,0,0,1,.158-.221.509.509,0,0,1,.284-.094h.158v.346h-.189a.267.267,0,0,0-.221.063.384.384,0,0,0-.158.158.456.456,0,0,0-.063.221v1.1H91.74v-1.8Z" fill="#58595b"/>
        <path id="패스_96" data-name="패스 96" d="M93.79,118a1.532,1.532,0,0,1-.283-.316,1.229,1.229,0,0,1,0-.946.689.689,0,0,1,.283-.315,1.03,1.03,0,0,1,.442-.126.61.61,0,0,1,.41.1.618.618,0,0,1,.284.283,1.2,1.2,0,0,1,.095.505v.126H93.727s0,.221.063.284a.287.287,0,0,0,.189.189.589.589,0,0,0,.253.063.339.339,0,0,0,.252-.063c.063-.063.126-.1.158-.126h.347a.6.6,0,0,1-.158.252.682.682,0,0,1-.252.158,1.118,1.118,0,0,1-.347.062A.666.666,0,0,1,93.79,118Zm.883-.978a.54.54,0,0,0-.063-.252.378.378,0,0,0-.158-.158.573.573,0,0,0-.22-.063.425.425,0,0,0-.253.063.379.379,0,0,0-.158.158.6.6,0,0,0-.063.252Z" fill="#58595b"/>
        <path id="패스_97" data-name="패스 97" d="M96.217,118.056h-.346v-1.8h.346v.284s.095-.189.189-.221a.534.534,0,0,1,.316-.094.518.518,0,0,1,.315.063.733.733,0,0,1,.221.221.679.679,0,0,1,.063.378v1.135h-.347v-1.1a1.022,1.022,0,0,0-.095-.315.384.384,0,0,0-.283-.094.266.266,0,0,0-.221.062.385.385,0,0,0-.158.158.6.6,0,0,0-.063.253v1.072Z" fill="#58595b"/>
        <path id="패스_98" data-name="패스 98" d="M98.583,116.512H98.3v-.852h.283Z" fill="#58595b"/>
        <path id="패스_99" data-name="패스 99" d="M100.412,116.573a.629.629,0,0,0-.221-.062.393.393,0,0,0-.189.031c-.063,0-.094.063-.126.094,0,.032-.032.064-.032.127s0,.094.063.126a.771.771,0,0,0,.22.1l.284.063a.711.711,0,0,1,.378.189.4.4,0,0,1,.126.315c0,.1,0,.221-.094.284a.486.486,0,0,1-.252.189,1.345,1.345,0,0,1-.379.064.8.8,0,0,1-.5-.127.584.584,0,0,1-.221-.379h.347a.319.319,0,0,0,.346.253c.127,0,.221,0,.285-.063a.192.192,0,0,0,.094-.19.173.173,0,0,0-.063-.157.742.742,0,0,0-.221-.1l-.284-.062a.719.719,0,0,1-.378-.19.4.4,0,0,1-.126-.315.348.348,0,0,1,.095-.284.392.392,0,0,1,.253-.189,1.159,1.159,0,0,1,.378-.063.572.572,0,0,1,.347.063.33.33,0,0,1,.22.189.381.381,0,0,1,.095.284h-.346s-.063-.127-.127-.158Z" fill="#58595b"/>
        <path id="패스_100" data-name="패스 100" d="M103.093,115.66h.882a.569.569,0,0,1,.41.094.579.579,0,0,1,.253.221.536.536,0,0,1,.094.316.47.47,0,0,1-.126.346.426.426,0,0,1-.284.158s.158.063.253.1a1.352,1.352,0,0,1,.188.221.514.514,0,0,1,.064.314.456.456,0,0,1-.1.348.507.507,0,0,1-.283.221,1.015,1.015,0,0,1-.442.094h-.914V115.66Zm.85,1.04a.389.389,0,0,0,.221-.063.305.305,0,0,0,.158-.125.445.445,0,0,0,.063-.19.358.358,0,0,0-.094-.252.473.473,0,0,0-.316-.1h-.5v.725Zm.032,1.041a.667.667,0,0,0,.379-.095.287.287,0,0,0,.126-.252.3.3,0,0,0-.063-.22c-.063-.063-.1-.127-.158-.158a.588.588,0,0,0-.252-.063h-.536v.757h.5Z" fill="#58595b"/>
        <path id="패스_101" data-name="패스 101" d="M105.8,117.173a1.505,1.505,0,0,1,.473-.127h.473v-.158a.617.617,0,0,0-.1-.252.386.386,0,0,0-.284-.1.338.338,0,0,0-.251.063.322.322,0,0,0-.127.158h-.347a.911.911,0,0,1,.126-.252,1.733,1.733,0,0,1,.253-.189,1.189,1.189,0,0,1,.378-.063.522.522,0,0,1,.316.063.5.5,0,0,1,.252.189.674.674,0,0,1,.094.378v1.2h-.346v-.252s-.1.157-.19.189a.564.564,0,0,1-.346.094.522.522,0,0,1-.316-.062.425.425,0,0,1-.221-.19.581.581,0,0,1,.126-.693Zm.252.6a.923.923,0,0,0,.252.063.341.341,0,0,0,.253-.063.388.388,0,0,0,.158-.158.459.459,0,0,0,.063-.19v-.157h-.411a.384.384,0,0,0-.283.094.226.226,0,0,0-.1.19c0,.063,0,.157.1.189Z" fill="#58595b"/>
        <path id="패스_102" data-name="패스 102" d="M108.359,118a1.526,1.526,0,0,1-.284-.316,1.225,1.225,0,0,1,0-.946.691.691,0,0,1,.284-.315,1.023,1.023,0,0,1,.441-.126.61.61,0,0,1,.41.1.623.623,0,0,1,.284.283,1.2,1.2,0,0,1,.094.505v.126H108.3s0,.221.063.284.1.157.189.189a.584.584,0,0,0,.252.063.339.339,0,0,0,.252-.063.708.708,0,0,0,.158-.126h.347a.6.6,0,0,1-.157.252,1.1,1.1,0,0,1-.253.158,1.119,1.119,0,0,1-.347.062A.663.663,0,0,1,108.359,118Zm.883-.978a.54.54,0,0,0-.063-.252.382.382,0,0,0-.158-.158.577.577,0,0,0-.221-.063.424.424,0,0,0-.252.063.382.382,0,0,0-.158.158.6.6,0,0,0-.063.252Z" fill="#58595b"/>
        <path id="패스_103" data-name="패스 103" d="M110.471,115.66h.347v1.356l.726-.757h.409l-.725.757.788,1.041h-.441l-.6-.82-.158.157v.632h-.347V115.66Z" fill="#58595b"/>
        <path id="패스_104" data-name="패스 104" d="M113.12,116.259v1.924a.545.545,0,0,1-.158.41.62.62,0,0,1-.441.158h-.063v-.316h.063a.311.311,0,0,0,.189-.063.271.271,0,0,0,.063-.189v-1.924Zm-.284-.315a.489.489,0,0,1-.1-.063v-.189c0-.031.063-.063.1-.063h.253c.031,0,.063.032.094.063v.189c0,.031-.063.063-.094.063h-.253Z" fill="#58595b"/>
        <path id="패스_105" data-name="패스 105" d="M114.381,118a1.53,1.53,0,0,1-.283-.316,1.225,1.225,0,0,1,0-.946.689.689,0,0,1,.283-.315,1.036,1.036,0,0,1,.442-.126.61.61,0,0,1,.41.1.809.809,0,0,1,.284.283,1.192,1.192,0,0,1,.126.505v.126H114.35s0,.221.063.284.1.157.189.189a.589.589,0,0,0,.253.063.339.339,0,0,0,.252-.063.7.7,0,0,0,.157-.126h.348a.605.605,0,0,1-.158.252.681.681,0,0,1-.253.158,1.113,1.113,0,0,1-.346.062.666.666,0,0,1-.442-.125Zm.883-.978a.54.54,0,0,0-.063-.252.374.374,0,0,0-.157-.158.582.582,0,0,0-.221-.063.423.423,0,0,0-.252.063.382.382,0,0,0-.158.158.588.588,0,0,0-.063.252Z" fill="#58595b"/>
        <path id="패스_106" data-name="패스 106" d="M117.819,115.66h1.513v.315H118.2v.725h1.072v.316H118.2v.725h1.167v.316H117.85v-2.4Z" fill="#58595b"/>
        <path id="패스_107" data-name="패스 107" d="M120.941,116.952l.409-.694h.379l-.567.883.567.915h-.379l-.409-.663-.411.663h-.378l.568-.915-.568-.883h.378Z" fill="#58595b"/>
        <path id="패스_108" data-name="패스 108" d="M122.549,116.259h.346v.283s.063-.094.1-.157a.675.675,0,0,1,.158-.126.588.588,0,0,1,.252-.063.5.5,0,0,1,.378.126,2.7,2.7,0,0,1,.284.315.855.855,0,0,1,.1.5,1.308,1.308,0,0,1-.1.5.867.867,0,0,1-.252.316.9.9,0,0,1-.378.126.42.42,0,0,1-.316-.1,1.354,1.354,0,0,1-.189-.221v.946h-.347v-2.491Zm.409,1.229a1.588,1.588,0,0,0,.158.221.36.36,0,0,0,.253.1.259.259,0,0,0,.251-.1.55.55,0,0,0,.158-.221.918.918,0,0,0,.063-.315.517.517,0,0,0-.063-.315.55.55,0,0,0-.158-.221.356.356,0,0,0-.251-.1.341.341,0,0,0-.253.063.569.569,0,0,0-.158.221.953.953,0,0,0-.063.316A.62.62,0,0,0,122.958,117.488Z" fill="#58595b"/>
        <path id="패스_109" data-name="패스 109" d="M125.355,118a1.53,1.53,0,0,1-.283-.316,1.225,1.225,0,0,1,0-.946.688.688,0,0,1,.283-.315,1.028,1.028,0,0,1,.442-.126.612.612,0,0,1,.41.1.809.809,0,0,1,.284.283,1.2,1.2,0,0,1,.094.505v.126h-1.293s0,.221.063.284.095.157.189.189a.593.593,0,0,0,.253.063.339.339,0,0,0,.252-.063.732.732,0,0,0,.158-.126h.347a.594.594,0,0,1-.158.252.681.681,0,0,1-.253.158,1.113,1.113,0,0,1-.346.062A.666.666,0,0,1,125.355,118Zm.883-.978a.54.54,0,0,0-.063-.252.368.368,0,0,0-.158-.158.573.573,0,0,0-.22-.063.427.427,0,0,0-.253.063.374.374,0,0,0-.157.158.588.588,0,0,0-.064.252Z" fill="#58595b"/>
        <path id="패스_110" data-name="패스 110" d="M127.469,116.258h.346v.284a1.652,1.652,0,0,1,.158-.221.506.506,0,0,1,.284-.094h.157v.346h-.189a.267.267,0,0,0-.221.063.38.38,0,0,0-.157.158.45.45,0,0,0-.064.221v1.1h-.346v-1.8Z" fill="#58595b"/>
        <path id="패스_111" data-name="패스 111" d="M129.266,115.944a.459.459,0,0,1-.1-.063v-.189c0-.031.063-.063.1-.063h.252c.032,0,.063.032.1.063v.189c0,.031-.063.063-.1.063h-.252Zm-.064.315h.348v1.8H129.2Z" fill="#58595b"/>
        <path id="패스_112" data-name="패스 112" d="M130.811,118a1.526,1.526,0,0,1-.284-.316,1.237,1.237,0,0,1,0-.946.685.685,0,0,1,.284-.315,1.028,1.028,0,0,1,.442-.126.609.609,0,0,1,.409.1.618.618,0,0,1,.284.283,1.2,1.2,0,0,1,.1.505v.126h-1.294s0,.221.064.284.094.157.189.189a.589.589,0,0,0,.253.063.338.338,0,0,0,.251-.063c.063-.063.127-.1.158-.126h.347a.594.594,0,0,1-.158.252.676.676,0,0,1-.252.158,1.118,1.118,0,0,1-.346.062A.665.665,0,0,1,130.811,118Zm.883-.978a.54.54,0,0,0-.063-.252.368.368,0,0,0-.158-.158.573.573,0,0,0-.22-.063.426.426,0,0,0-.253.063.382.382,0,0,0-.158.158.6.6,0,0,0-.063.252Z" fill="#58595b"/>
        <path id="패스_113" data-name="패스 113" d="M133.239,118.056h-.347v-1.8h.347v.284s.094-.189.189-.221a.534.534,0,0,1,.316-.094.514.514,0,0,1,.314.063.728.728,0,0,1,.221.221.68.68,0,0,1,.064.378v1.135h-.348v-1.1a1.017,1.017,0,0,0-.094-.315.386.386,0,0,0-.284-.094.267.267,0,0,0-.221.062.38.38,0,0,0-.157.158.589.589,0,0,0-.064.253v1.072Z" fill="#58595b"/>
        <path id="패스_114" data-name="패스 114" d="M135.667,118a1.53,1.53,0,0,1-.283-.316,1.225,1.225,0,0,1,0-.946.688.688,0,0,1,.283-.315,1.028,1.028,0,0,1,.442-.126.8.8,0,0,1,.378.063.865.865,0,0,1,.253.22.964.964,0,0,1,.126.316h-.347a.877.877,0,0,0-.127-.221.357.357,0,0,0-.251-.1.341.341,0,0,0-.253.063.584.584,0,0,0-.158.221.953.953,0,0,0-.063.316.621.621,0,0,0,.063.346,1.319,1.319,0,0,0,.158.221.337.337,0,0,0,.253.064.261.261,0,0,0,.251-.1c.063-.1.127-.126.127-.221h.347a1.559,1.559,0,0,1-.126.316.883.883,0,0,1-.253.221.682.682,0,0,1-.378.063.723.723,0,0,1-.442-.127Z" fill="#58595b"/>
        <path id="패스_115" data-name="패스 115" d="M138,118a1.526,1.526,0,0,1-.284-.316,1.237,1.237,0,0,1,0-.946.685.685,0,0,1,.284-.315,1.027,1.027,0,0,1,.441-.126.61.61,0,0,1,.41.1.618.618,0,0,1,.284.283,1.2,1.2,0,0,1,.1.505v.126h-1.294s0,.221.064.284a.284.284,0,0,0,.189.189.588.588,0,0,0,.252.063.339.339,0,0,0,.252-.063c.063-.063.127-.1.158-.126h.347a.594.594,0,0,1-.158.252.676.676,0,0,1-.252.158,1.119,1.119,0,0,1-.347.062A.663.663,0,0,1,138,118Zm.883-.978a.533.533,0,0,0-.064-.252.374.374,0,0,0-.157-.158.572.572,0,0,0-.221-.063.424.424,0,0,0-.252.063.382.382,0,0,0-.158.158.6.6,0,0,0-.063.252Z" fill="#58595b"/>
        <path id="패스_116" data-name="패스 116" d="M142.951,116.2a.789.789,0,0,0-.221-.158.925.925,0,0,0-.283-.063.844.844,0,0,0-.379.1.662.662,0,0,0-.252.316,1.05,1.05,0,0,0-.094.472.75.75,0,0,0,.094.473.867.867,0,0,0,.252.316.675.675,0,0,0,.379.094.465.465,0,0,0,.283-.063.559.559,0,0,0,.221-.158.64.64,0,0,0,.127-.251h.378a.928.928,0,0,1-.157.409.986.986,0,0,1-.348.284,1.049,1.049,0,0,1-.472.1,1.084,1.084,0,0,1-.568-.158,1.041,1.041,0,0,1-.378-.442,1.789,1.789,0,0,1,0-1.324,1.272,1.272,0,0,1,.378-.441,1.084,1.084,0,0,1,.568-.158,1.262,1.262,0,0,1,.472.1.983.983,0,0,1,.348.283,1.1,1.1,0,0,1,.188.442h-.378a.9.9,0,0,0-.126-.252Z" fill="#58595b"/>
        <path id="패스_117" data-name="패스 117" d="M144.623,118a1.525,1.525,0,0,1-.284-.316,1.225,1.225,0,0,1,0-.946.69.69,0,0,1,.284-.315,1.023,1.023,0,0,1,.441-.126.749.749,0,0,1,.694.378,1.2,1.2,0,0,1,.094.505v.126H144.56s0,.221.063.284a.286.286,0,0,0,.189.189.584.584,0,0,0,.252.063.341.341,0,0,0,.253-.063c.063-.063.126-.1.157-.126h.347a.6.6,0,0,1-.157.252.681.681,0,0,1-.253.158,1.119,1.119,0,0,1-.347.062A.663.663,0,0,1,144.623,118Zm.883-.978a.54.54,0,0,0-.063-.252.382.382,0,0,0-.158-.158.577.577,0,0,0-.221-.063.424.424,0,0,0-.252.063.382.382,0,0,0-.158.158.6.6,0,0,0-.063.252Z" fill="#58595b"/>
        <path id="패스_118" data-name="패스 118" d="M147.083,118.056h-.348v-1.8h.348v.284s.094-.189.188-.221a.536.536,0,0,1,.316-.094.517.517,0,0,1,.315.063.728.728,0,0,1,.221.221.68.68,0,0,1,.063.378v1.135h-.347v-1.1a1.017,1.017,0,0,0-.094-.315.386.386,0,0,0-.284-.094.266.266,0,0,0-.221.062.38.38,0,0,0-.157.158.589.589,0,0,0-.064.253v1.072Z" fill="#58595b"/>
        <path id="패스_119" data-name="패스 119" d="M150.015,116.542h-.379v.978s0,.158.063.19a.246.246,0,0,0,.158.063h.19v.315h-.221a.339.339,0,0,1-.252-.063.32.32,0,0,1-.19-.158.339.339,0,0,1-.063-.252v-1.073h-.252v-.283h.252v-.442h.347v.442h.379v.283Z" fill="#58595b"/>
        <path id="패스_120" data-name="패스 120" d="M151.151,118a1.525,1.525,0,0,1-.284-.316,1.225,1.225,0,0,1,0-.946.69.69,0,0,1,.284-.315,1.023,1.023,0,0,1,.441-.126.608.608,0,0,1,.409.1.813.813,0,0,1,.285.283,1.2,1.2,0,0,1,.094.505v.126h-1.292s0,.221.063.284.094.157.188.189a.589.589,0,0,0,.253.063.34.34,0,0,0,.252-.063.7.7,0,0,0,.157-.126h.348a.605.605,0,0,1-.158.252.676.676,0,0,1-.252.158,1.119,1.119,0,0,1-.347.062A.663.663,0,0,1,151.151,118Zm.882-.978a.534.534,0,0,0-.062-.252.382.382,0,0,0-.158-.158.577.577,0,0,0-.221-.063.427.427,0,0,0-.253.063.38.38,0,0,0-.157.158.6.6,0,0,0-.063.252Z" fill="#58595b"/>
        <path id="패스_121" data-name="패스 121" d="M153.263,116.258h.346v.284a1.652,1.652,0,0,1,.158-.221.511.511,0,0,1,.284-.094h.158v.346h-.189a.266.266,0,0,0-.221.063.388.388,0,0,0-.158.158.45.45,0,0,0-.063.221v1.1h-.347v-1.8Z" fill="#58595b"/>
        <path id="패스_122" data-name="패스 122" d="M101.484,67.38l-.6-.316a.621.621,0,0,0-.251,0l-.6.316a.266.266,0,0,1-.378-.284l.126-.662a.389.389,0,0,0-.063-.221l-.474-.473s-.063-.41.158-.442l.663-.094s.157-.063.189-.126l.316-.6a.267.267,0,0,1,.472,0l.316.6s.094.126.189.126l.662.094c.221,0,.284.284.126.442l-.5.473s-.1.158-.063.221l.126.662a.266.266,0,0,1-.378.284Z" fill="#dc2226"/>
        <path id="패스_123" data-name="패스 123" d="M134.532,79.742l-.977-.5a.726.726,0,0,0-.379,0l-.977.5a.411.411,0,0,1-.6-.441l.19-1.072s0-.283-.127-.378l-.788-.757a.405.405,0,0,1,.221-.694l1.072-.157s.252-.095.315-.221l.474-.978a.4.4,0,0,1,.725,0l.473.978s.189.221.315.221l1.072.157a.4.4,0,0,1,.221.694l-.788.757a.637.637,0,0,0-.127.378l.19,1.072a.411.411,0,0,1-.6.441Z" fill="#49a1da"/>
        <path id="패스_124" data-name="패스 124" d="M132.45,52.337a5.181,5.181,0,0,0-.63-.536,6.577,6.577,0,0,0-2.144-1.009,4.7,4.7,0,0,0-3.721-1.072,11.15,11.15,0,0,0-2.3.473,9.35,9.35,0,0,0-1.86,4.793,93.726,93.726,0,0,0,10.627-2.681Z" fill="#28449c"/>
        <path id="패스_125" data-name="패스 125" d="M121.824,55.02a8.975,8.975,0,0,1,1.86-4.793,12.142,12.142,0,0,0-2.208-.852,9.817,9.817,0,0,0-9.049,1.828,48.819,48.819,0,0,0-.789,5.3c3-.284,6.465-.757,10.217-1.482Z" fill="#ef3924"/>
        <path id="패스_126" data-name="패스 126" d="M112.363,51.2a4.475,4.475,0,0,0-.693.663h-.158A6.928,6.928,0,0,0,104.731,57c1.7-.063,4.037-.189,6.812-.473a49.074,49.074,0,0,1,.789-5.3Z" fill="#0ac"/>
        <path id="패스_127" data-name="패스 127" d="M123.021,67.791a38.6,38.6,0,0,0-3,2.9,7.6,7.6,0,0,1,.883.095c1.955.252,3.28.883,1.734,2.27a9.655,9.655,0,0,0-1.135,1.166c-3.027,3.627,1.009,5.077,1.009,5.077-1.7-2.964.788-3.879,3.689-4.856,2.334-.788,4.952-1.639,5.866-3.658a.115.115,0,0,1,.032-.095,10.512,10.512,0,0,0,.63-1.829q-5.344-.331-9.744-1.041Z" fill="#ee396f"/>
        <path id="패스_128" data-name="패스 128" d="M132.766,68.831a5.569,5.569,0,0,0,.031-2.964,4.427,4.427,0,0,0-.6-1.23,4.593,4.593,0,0,0-1.608-1.387,24.7,24.7,0,0,0-7.6,4.541c2.932.441,6.181.82,9.744,1.041Z" fill="#f8d62c"/>
        <path id="패스_129" data-name="패스 129" d="M122.044,58.392a14.854,14.854,0,0,1,2.618.915,9.474,9.474,0,0,0,2.995.915c3.911.441,6.308-2.428,6.024-5.2a4.3,4.3,0,0,0-1.262-2.681,95.329,95.329,0,0,1-10.627,2.681,12.767,12.767,0,0,0,.221,3.374Z" fill="#f9a13f"/>
        <path id="패스_130" data-name="패스 130" d="M123.021,67.791a90.176,90.176,0,0,1-11.194-2.46,20.964,20.964,0,0,0,1.451,4.983,8.664,8.664,0,0,0,2.806.379h.189a29.2,29.2,0,0,1,3.721,0,38.811,38.811,0,0,1,3-2.9Z" fill="#8759a5"/>
        <path id="패스_131" data-name="패스 131" d="M121.824,55.018c-3.753.725-7.253,1.2-10.217,1.482a33.362,33.362,0,0,0,.252,8.829,83.64,83.64,0,0,0,11.194,2.46,24.707,24.707,0,0,1,7.6-4.541c-.221-.126-.443-.22-.7-.347a12.147,12.147,0,0,0-7.252-.347c-2.712.694-7.474,1.419-6.97-1.7a3.124,3.124,0,0,1,2.933-2.743,9.918,9.918,0,0,1,3.437.252,11.508,11.508,0,0,1-.22-3.374Z" fill="#49a1da"/>
        <path id="패스_132" data-name="패스 132" d="M104.606,62.713c1.23,4.446,5.55,6.748,8.7,7.6a21.057,21.057,0,0,1-1.451-4.983,58.28,58.28,0,0,1-7.22-2.617Z" fill="#b0d235"/>
        <path id="패스_133" data-name="패스 133" d="M111.575,56.5c-2.775.284-5.109.41-6.812.473a3.388,3.388,0,0,0-.157.536,11.252,11.252,0,0,0-.221,1.1,10.739,10.739,0,0,0,0,3.185l.189.946a58.308,58.308,0,0,0,7.221,2.617,34.781,34.781,0,0,1-.252-8.829Z" fill="#32499e"/>
        <path id="패스_134" data-name="패스 134" d="M116.116,167.784H95.808V210.86h20.308Z" fill="#ebebeb"/>
        <path id="패스_135" data-name="패스 135" d="M138.569,167.784H118.26V210.86h20.309Z" fill="#ebebeb"/>
        <path id="패스_136" data-name="패스 136" d="M241,61.974h-8.4v156.3H241Z" fill="#808285"/>
        <path id="패스_137" data-name="패스 137" d="M240.613,61.265V56.377H166.571v5.55h74.042Z" fill="#808285"/>
        <path id="패스_138" data-name="패스 138" d="M89.217,139.878H73.671v24.5H89.217Z" fill="#a0ddf7"/>
        <path id="패스_139" data-name="패스 139" d="M107.792,139.878H92.245v24.5h15.547Z" fill="#a0ddf7"/>
        <path id="패스_140" data-name="패스 140" d="M126.364,139.878H110.818v24.5h15.546Z" fill="#a0ddf7"/>
        <path id="패스_141" data-name="패스 141" d="M144.938,139.878H129.392v24.5h15.546Z" fill="#a0ddf7"/>
        <path id="패스_142" data-name="패스 142" d="M163.512,139.878H147.966v24.5h15.546Z" fill="#a0ddf7"/>
        <path id="패스_143" data-name="패스 143" d="M169.913,25H66.639v7.189H169.913Z" fill="#808285"/>
        <path id="패스_144" data-name="패스 144" d="M20,210.862H69.856v-99.4H34.38L20,124.489Z" fill="#ebebeb"/>
        <path id="패스_145" data-name="패스 145" d="M69.856,99.579h-37.4v1.672h37.4Z" fill="#808285"/>
        <path id="패스_146" data-name="패스 146" d="M67.648,111.467V100.146H65.977v11.321Z" fill="#808285"/>
        <path id="패스_147" data-name="패스 147" d="M62.729,111.468V100.146H61.058v11.322Z" fill="#808285"/>
        <path id="패스_148" data-name="패스 148" d="M57.841,111.436V100.115H56.169v11.321Z" fill="#808285"/>
        <path id="패스_149" data-name="패스 149" d="M52.921,111.436V100.115H51.25v11.321Z" fill="#808285"/>
        <path id="패스_150" data-name="패스 150" d="M48,111.467V100.146H46.332v11.321Z" fill="#808285"/>
        <path id="패스_151" data-name="패스 151" d="M43.083,111.467V100.146H41.412v11.321Z" fill="#808285"/>
        <path id="패스_152" data-name="패스 152" d="M38.2,111.436V100.115H36.524v11.321Z" fill="#808285"/>
        <path id="패스_153" data-name="패스 153" d="M44.123,125.783H34V135.9H44.123Z" fill="#a0ddf7"/>
        <path id="패스_154" data-name="패스 154" d="M55.822,125.783H45.7V135.9H55.822Z" fill="#a0ddf7"/>
        <path id="패스_155" data-name="패스 155" d="M44.123,137.481H34V147.6H44.123Z" fill="#a0ddf7"/>
        <path id="패스_156" data-name="패스 156" d="M55.822,137.481H45.7V147.6H55.822Z" fill="#a0ddf7"/>
        <path id="패스_157" data-name="패스 157" d="M44.123,149.212H34v10.122H44.123Z" fill="#a0ddf7"/>
        <path id="패스_158" data-name="패스 158" d="M55.822,149.212H45.7v10.122H55.822Z" fill="#a0ddf7"/>
        <path id="패스_159" data-name="패스 159" d="M69.578,170.373H20v47.9H69.578Z" fill="#a7a9ac"/>
        <path id="패스_160" data-name="패스 160" d="M51.282,183.837H38.542v27.025h12.74Z" fill="#6d6e71"/>
        <path id="패스_161" data-name="패스 161" d="M171.08,130.64H64.936v10.5H171.08Z" fill="#939598"/>
      </g>
      <rect id="사각형_162" data-name="사각형 162" width="222" height="194" transform="translate(-7451 -22520)" fill="#fff" opacity="0"/>
    </g>
  </g>
</svg>
