<svg xmlns="http://www.w3.org/2000/svg" xmlns:xlink="http://www.w3.org/1999/xlink" width="150" height="36" viewBox="0 0 150 36">
  <defs>
    <clipPath id="clip-cloud_3">
      <rect width="150" height="36"/>
    </clipPath>
  </defs>
  <g id="cloud_3" clip-path="url(#clip-cloud_3)">
    <path id="다운로드_2_" data-name="다운로드 (2)" d="M147.455,26.1c.553-18.11-33.805-29.486-48-13.017C90.5,8.863,82.121-.067,69.931,0,56.655.084,60.251,8.478,50.8,11.627,39.615,15.363,8-11.961.575,11.074-2.233,19.82,5.617,27.761,15.851,30.91c10.764,3.317,15.126-1.122,24.636-1.843,8.808-.67,16.53,4.054,27.38,3.518,7.659-.385,15.339-6.333,21.955-6.484C97.694,25.918,150.242,44.816,147.455,26.1Z" transform="translate(0 4.196) rotate(-3)" fill="#fff" opacity="0.8"/>
  </g>
</svg>
