<svg xmlns="http://www.w3.org/2000/svg" xmlns:xlink="http://www.w3.org/1999/xlink" width="159" height="64" viewBox="0 0 159 64">
  <defs>
    <clipPath id="clip-cloud_4">
      <rect width="159" height="64"/>
    </clipPath>
  </defs>
  <g id="cloud_4" clip-path="url(#clip-cloud_4)">
    <g id="그룹_160" data-name="그룹 160">
      <path id="다운로드_3_" data-name="다운로드 (3)" d="M122.823,24.308c8.592,1.053,30.512-3.421,33.565,9.283,4.9,22.01-21.974,16.149-30.165,19.69-12.267,5-22.011,2.536-35.338,1.555-11.353-.742-18.519,9.426-29.4,8.756-7.422-.239-11.389-7.225-18.1-10.646s-12.249-2.129-19.671-2.392c-4.973.048-25.448,2.105-23.6-10,1.1-8.3,13.382-6.818,18.081-10.144,7.349-5.6,6.947-14.092,15.539-16.293,9.616-2.727,19.013,4.9,27.953-2.44,7.349-5.6,7.9-13.326,18.665-11.364C88.674,1.962,92.439,14,100.446,17.681c11.536,5.287,13.492,5.527,22.34,6.6Z" transform="translate(2.02)" fill="#fff" opacity="0.8"/>
      <rect id="사각형_165" data-name="사각형 165" width="159" height="64" fill="#fff" opacity="0"/>
    </g>
  </g>
</svg>
