<svg xmlns="http://www.w3.org/2000/svg" xmlns:xlink="http://www.w3.org/1999/xlink" width="138" height="41" viewBox="0 0 138 41">
  <defs>
    <clipPath id="clip-cloud_2">
      <rect width="138" height="41"/>
    </clipPath>
  </defs>
  <g id="cloud_2" clip-path="url(#clip-cloud_2)">
    <path id="다운로드_2_" data-name="다운로드 (2)" d="M.1,30.833C-.415,9.44,31.545-4,44.745,15.456,53.076,10.469,60.873-.079,72.212,0c12.349.1,9,10.013,17.791,13.734,10.409,4.413,39.817-27.864,46.723-.653,2.612,10.33-4.69,19.71-14.209,23.431C112.5,40.43,108.447,35.186,99.6,34.335c-8.193-.792-15.376,4.789-25.469,4.156-7.124-.455-14.268-7.481-20.423-7.659C46.387,30.615-2.493,52.937.1,30.833Z" transform="translate(0 0)" fill="#fff" opacity="0.8"/>
  </g>
</svg>
