<svg xmlns="http://www.w3.org/2000/svg" xmlns:xlink="http://www.w3.org/1999/xlink" width="284" height="88" viewBox="0 0 284 88">
  <defs>
    <clipPath id="clip-cloud_1">
      <rect width="284" height="88"/>
    </clipPath>
  </defs>
  <g id="cloud_1" clip-path="url(#clip-cloud_1)">
    <g id="그룹_161" data-name="그룹 161" transform="translate(7048 22537)">
      <path id="다운로드_3_" data-name="다운로드 (3)" d="M61.378,33.377c-15.44,1.445-54.828-4.7-60.314,12.746-8.8,30.223,39.487,22.174,54.2,27.036,22.043,6.866,39.552,3.482,63.5,2.135,20.4-1.018,33.278,12.943,52.825,12.023C184.93,86.99,192.059,77.4,204.115,72.7s22.01-2.924,35.347-3.285c8.936.066,45.729,2.891,42.411-13.732-1.971-11.4-24.047-9.362-32.49-13.929C236.177,34.067,236.9,22.4,221.46,19.383c-17.279-3.745-34.165,6.734-50.229-3.351-13.206-7.687-14.191-18.3-33.54-15.6-14.948,2.267-21.715,18.791-36.1,23.85-20.729,7.26-24.244,7.589-40.144,9.067Z" transform="translate(-7048 -22537)" fill="#fff" opacity="0.8"/>
      <rect id="사각형_165" data-name="사각형 165" width="284" height="88" transform="translate(-7048 -22537)" fill="#fff" opacity="0"/>
    </g>
  </g>
</svg>
