<svg xmlns="http://www.w3.org/2000/svg" xmlns:xlink="http://www.w3.org/1999/xlink" width="4805" height="448" viewBox="0 0 4805 448">
  <defs>
    <clipPath id="clip-path">
      <rect id="사각형_238" data-name="사각형 238" width="4805" height="448" transform="translate(-7288 657)" fill="#fff" stroke="#707070" stroke-width="1" opacity="0.72"/>
    </clipPath>
  </defs>
  <g id="마스크_그룹_6" data-name="마스크 그룹 6" transform="translate(7288 -657)" clip-path="url(#clip-path)">
    <g id="wave1" transform="translate(-7288.105 660.117)">
      <path id="패스_318" data-name="패스 318" d="M2002,72.5s-330.17-108.642-568-11c-169.57,69.617-237,132.018-437,120s-150.5-55.5-275-81S521.3,143.064,361.5,222.783l-361,254h1506s850.72,16.282,929.72-43S2296,241,2296,241l-75-93.5" fill="#016a81"/>
      <path id="패스_319" data-name="패스 319" d="M2921.17,126.213s212.39-194.426,450.22-96.784c169.57,69.616,237,132.018,437,120s150.5-55.5,275-81,200.7,42.564,360.5,122.283l361,254L3290.5,468.5s-842.33-7.505-921.33-66.788,140.22-192.783,140.22-192.783L2742,306.5" fill="#016a81"/>
      <path id="패스_320" data-name="패스 320" d="M3459,67S3209.5-73.5,2969,53c-162.23,85.331-253,146.016-453,134s-206.5-24.217-331-49.717-232.2-2-392,77.717l-15.5,250.5L2419.75,480,3033,465.5s799.45,23.372,798-30-16-189-16-189l-259-92" fill="#016a81"/>
    </g>
  </g>
</svg>
