<svg xmlns="http://www.w3.org/2000/svg" xmlns:xlink="http://www.w3.org/1999/xlink" width="4914" height="432" viewBox="0 0 4914 432">
  <defs>
    <clipPath id="clip-path">
      <rect id="사각형_237" data-name="사각형 237" width="4914" height="432" transform="translate(-8430 -736)" fill="#fff" stroke="#707070" stroke-width="1" opacity="0.43"/>
    </clipPath>
    <linearGradient id="linear-gradient" x1="0.5" x2="0.5" y2="1" gradientUnits="objectBoundingBox">
      <stop offset="0" stop-color="#009ccf"/>
      <stop offset="1" stop-color="#1bbdc6"/>
    </linearGradient>
  </defs>
  <g id="마스크_그룹_7" data-name="마스크 그룹 7" transform="translate(8430 736)" clip-path="url(#clip-path)">
    <path id="합치기_5" data-name="합치기 5" d="M6541.571,434.587v2.578L3828,433.824v-1.505l-1624.5-2.376-.159-.359L0,426.87V130.494c76.6-28.187,463.731-106.867,738.367-22.906,169.027,51.673,261.695,20.406,347.588-10.86,68.592-24.968,132.865-49.936,228.256-32.664,211.16,70.168,245.159,81.689,554.159-35.06,223.93-84.609,805,42.823,805,42.823l.073.431c52.386,9.877,109.252,22.378,171.057,37.963,144.01,36.313,215.273,10.214,278.179-15.886,54.549-22.633,102.812-45.266,186.782-27.2,177.69,70.17,206.31,81.689,466.34-35.058,188.449-84.609,751.7,71.615,751.7,71.615l-.037.193q19.772,4.824,38.909,10.656c169.025,51.673,261.693,20.406,347.586-10.859,68.59-24.97,132.862-49.938,228.254-32.665,211.16,70.168,245.159,81.689,554.159-35.06C5894.468-38.892,6372.05,52.2,6479.6,74.211c55.222,10.161,115.5,23.272,181.4,39.889,144.009,36.313,215.271,10.214,278.176-15.886,54.549-22.631,102.814-45.264,186.784-27.2,177.689,70.168,206.308,81.689,466.338-35.06C7780.75-48.653,8269.74,78.779,8269.74,78.779l33.83,237.758V437.165Z" transform="translate(-8430 -728.047)" fill="url(#linear-gradient)"/>
  </g>
</svg>
