<svg xmlns="http://www.w3.org/2000/svg" xmlns:xlink="http://www.w3.org/1999/xlink" width="284" height="194" viewBox="0 0 284 194">
  <defs>
    <clipPath id="clip-island_2">
      <rect width="284" height="194"/>
    </clipPath>
  </defs>
  <g id="island_2" clip-path="url(#clip-island_2)">
    <g id="그룹_165" data-name="그룹 165" transform="translate(-214 -2748)">
      <g id="stone2" transform="translate(213.5 2747.5)">
        <path id="패스_288" data-name="패스 288" d="M11,133.5S23.356,60.161,68.384,64.094C68.384,64.094,86.84.5,117.7.5c26.513,0,40.338,28.214,40.338,28.214s10.08-15.556,32.682-11.488C224.186,21.747,243.5,69.5,243.5,69.5S278.016,129.635,284,195H.5l6-34.5Z" fill="#e5c388"/>
        <path id="패스_289" data-name="패스 289" d="M88.5,84.628a4.636,4.636,0,0,1,.721-1.4A2.282,2.282,0,0,1,89.8,82.7a.648.648,0,0,1,.108-.642,1.138,1.138,0,0,1,1.622-.349.631.631,0,0,1,.144-.092,1.277,1.277,0,0,1,.992-.312,1.312,1.312,0,0,1,.252.073,2.054,2.054,0,0,1,.036-.459.812.812,0,0,1,.667-.661c.144-.037.306-.074.451-.11a.839.839,0,0,1,.577.129,1.886,1.886,0,0,1,1.6-.459c-.234-.808-.072-1.634.974-1.8a1.431,1.431,0,0,1,1.172.33.159.159,0,0,0,.09-.018.756.756,0,0,1,.884.606.516.516,0,0,1,.451.239,1.536,1.536,0,0,1,.126.239.384.384,0,0,1,.181.073c.45-1.836,3.407-.789,3.118.771.018,0,.037.018.073.037a.774.774,0,0,1,.829.33.062.062,0,0,1,.036-.018,1.525,1.525,0,0,1,1.064-.808c1.929-.5,2.578,1.34,1.713,2.533a.708.708,0,0,1,.414.587.792.792,0,0,1,.487.349h.09a1.642,1.642,0,0,1,2.506,1.083.543.543,0,0,1-.126.514,1.414,1.414,0,0,1-.938,1.505.092.092,0,0,0,.018.055c.091.073.2.147.289.22a.747.747,0,0,1,.288.514l.163.11a1.369,1.369,0,0,1,1.207.22,1.167,1.167,0,0,1,.379,1.781.092.092,0,0,0,.018.055c.379,1.542-.649,1.964-1.875,1.928,0,.569-.649,1.12-1.5,1.212a.484.484,0,0,1-.09.11.684.684,0,0,1,.126.257.7.7,0,0,0,.018.2c.054.074.09.128.144.2.307.514-.252,1.065-.811,1.065h-.631c-.09,0-.793.716-.866.7,0,0-10.781-.918-14.982-.606-2.452.184-3.191-2.056-2.56-2.919a2.185,2.185,0,0,1-.072-.33,1.552,1.552,0,0,1-.379-.459,1.39,1.39,0,0,1-.18-.587c-.018-.055-.054-.11-.072-.165-.234-.808.956-1.616,1.532-2.13.018-.018.036-.055.072-.092a3.989,3.989,0,0,1,.559-.551,1.673,1.673,0,0,1-.5-.184,2.562,2.562,0,0,1-1.19-1.413,1.489,1.489,0,0,1-.054-.275s.271-.514.271-.532c-.036-.2-.307.11-.252-.11Z" fill="#3d813d"/>
        <path id="패스_290" data-name="패스 290" d="M43.325,52.352a8.6,8.6,0,0,1,1.149-2.51,4.229,4.229,0,0,1,.969-.993,1.1,1.1,0,0,1,.125-1.12,2.034,2.034,0,0,1,2.818-.758c.09-.054.162-.126.251-.181a2.251,2.251,0,0,1,1.7-.65,2.026,2.026,0,0,1,.449.109c0-.253,0-.488.018-.777A1.478,1.478,0,0,1,51.9,44.244c.269-.072.521-.162.79-.235a1.383,1.383,0,0,1,1.023.181,3.3,3.3,0,0,1,2.782-.939c-.5-1.372-.269-2.835,1.561-3.2a2.653,2.653,0,0,1,2.1.451c.054,0,.09-.036.144-.036a1.314,1.314,0,0,1,1.6.957,1.025,1.025,0,0,1,.807.361,1.967,1.967,0,0,1,.251.415,1.513,1.513,0,0,1,.305.09c.628-3.214,5.9-1.7,5.546,1.047.036,0,.072.036.125.054a1.3,1.3,0,0,1,1.472.506c.018,0,.036-.036.072-.054a2.816,2.816,0,0,1,1.813-1.517c3.338-1.029,4.63,2.077,3.249,4.226a1.278,1.278,0,0,1,.79.993,1.536,1.536,0,0,1,.9.56h.162c1.382-.939,3.554-.813,4.5,1.661a1.025,1.025,0,0,1-.18.921A2.462,2.462,0,0,1,80.188,53.4c0,.036.018.054.036.09.179.108.359.235.538.343a1.365,1.365,0,0,1,.574.867,1.026,1.026,0,0,1,.287.2,2.542,2.542,0,0,1,2.153.253,2,2,0,0,1,.826,3.034c0,.036.036.054.036.09.808,2.654-.987,3.467-3.1,3.521.072.993-1.023,2-2.513,2.239a1.373,1.373,0,0,1-.144.2.957.957,0,0,1,.233.415c.018.126.036.235.054.361.09.108.162.217.269.361.592.885-.341,1.878-1.31,1.932-.359,0-.736.036-1.095.036-.161,0-1.346,1.336-1.471,1.3,0,0-19.024-.614-26.382.307-4.307.542-5.8-3.268-4.756-4.822a1.974,1.974,0,0,1-.144-.56,2.643,2.643,0,0,1-.7-.776A3.06,3.06,0,0,1,43.2,61.8c-.036-.09-.09-.181-.125-.271-.485-1.372,1.543-2.889,2.512-3.846a1,1,0,0,1,.108-.144,6.225,6.225,0,0,1,.933-1.011,3.21,3.21,0,0,1-.9-.271,4.363,4.363,0,0,1-2.207-2.348,3.572,3.572,0,0,1-.126-.47l.413-.939c-.072-.343-.521.217-.467-.162Z" fill="#94b43d"/>
      </g>
      <rect id="사각형_236" data-name="사각형 236" width="284" height="195" transform="translate(214 2748)" fill="#fff" opacity="0"/>
    </g>
  </g>
</svg>
