<svg xmlns="http://www.w3.org/2000/svg" xmlns:xlink="http://www.w3.org/1999/xlink" width="545" height="269" viewBox="0 0 545 269">
  <defs>
    <clipPath id="clip-island_1">
      <rect width="545" height="269"/>
    </clipPath>
  </defs>
  <g id="island_1" clip-path="url(#clip-island_1)">
    <g id="그룹_166" data-name="그룹 166" transform="translate(-981 -2610)">
      <g id="stone" transform="translate(981 2611.523)">
        <path id="패스_257" data-name="패스 257" d="M178.058,93.428s-48.883-16.518-91.2,53.216c0,0-25.164-4.577-56.919,53.827C-1.791,258.875.019,271.955.019,271.955l72.237.692,63.388-126.918,4.516-.244,25.855,4.251,12.043-56.268Z" fill="#b1996b"/>
        <path id="패스_258" data-name="패스 258" d="M276.822,51.807s28.134-36.19,52.83,5.167c0,0,37.329-1.729,65.463,48.823,0,0,51.691-32.162,87.291,72.928,0,0,42.5-4.17,62.594,89.508H256.134L268.2,96.6,276.8,51.807Z" fill="#b1996b"/>
        <path id="패스_259" data-name="패스 259" d="M30.614,269.9s18.959-126.8,101-119.9c0,0,11.432-139.206,84.931-148.848s78.421,86.823,78.421,86.823,17.556-51.365,66.053-48.07c48.476,3.3,84.1,116.421,84.1,116.421s59.258-1,70.162,113.594H30.635Z" fill="#e5c388"/>
        <path id="패스_260" data-name="패스 260" d="M298.589,184.849l-2.5,5.554,8.463-.021-2.665-6.306Z" fill="#90532d"/>
        <path id="패스_261" data-name="패스 261" d="M291.042,158.383a8.052,8.052,0,0,0,6.224-1.445,31.924,31.924,0,0,1-10.883,11.514c4.659.977,10.5-2.481,10.5-2.481a46.48,46.48,0,0,1-16.234,12.347,25.24,25.24,0,0,0,13.04-.793c-2.421,2.828-4.882,5.208-12,10.6,7.466-.875,12.348-1.872,18.674-1.323,5.7.489,11.108,1.282,16.376,3.479-3.051-3.824-6.631-8.4-9.7-12.226,3.662,1.79,8.137,3.133,11.982,2.441a57.057,57.057,0,0,1-12.328-12.9c1.933.936,6.1.651,8.219.346-3.886-2.218-7.263-6.815-9.7-10.558a11.749,11.749,0,0,0,6.184.854c-5.207-4.618-9.846-14.891-9.846-14.891a58,58,0,0,1-10.558,15.034Z" fill="#839e55"/>
        <path id="패스_262" data-name="패스 262" d="M330.934,267.643c69.825,0,126.43-17.76,126.43-39.668s-56.605-39.668-126.43-39.668S204.5,206.067,204.5,227.975,261.109,267.643,330.934,267.643Z" fill="#fbb040"/>
        <path id="패스_263" data-name="패스 263" d="M235.75,67.552a3.383,3.383,0,0,0,1.343-5.37,3.563,3.563,0,0,0-.691-.549,2.023,2.023,0,0,0,.2-.834,1.281,1.281,0,0,0-.183-.672c.1-.142.264-.244.346-.407a2.285,2.285,0,0,0-.021-1.933,2.146,2.146,0,0,0-.244-.691,3.052,3.052,0,0,0,.773-1.2c.732-1.994-.447-4.577-2.909-4.292a2.132,2.132,0,0,0-.813-.448,3.386,3.386,0,0,0-.306-3.133,1.578,1.578,0,0,0,.2-.366c.081-.366.183-.732.264-1.078.244-.956-.569-2.136-1.668-1.79-.183.061-.305.1-.448.163a2.255,2.255,0,0,1-.386-.041,1.548,1.548,0,0,0-.509.122c-.061-.061-.1-.122-.162-.183.183-1.526-.57-2.848-1.648-3.051.529-2.1.183-4.048-2.848-3.967h-.1a2.33,2.33,0,0,0-3.458,0,2.358,2.358,0,0,0-.875,2.034,1.074,1.074,0,0,0-.284.244,1.458,1.458,0,0,0-1.079.326c-.183.142-.346.285-.529.427h-.1a2.611,2.611,0,0,0-2.441-2.2,1.259,1.259,0,0,0-.916-.427c-2.868.264-3.641,2.36-3.031,3.967-.02.061-.041.1-.061.163a1.529,1.529,0,0,0-.834.712,1.444,1.444,0,0,0-1.261.509c-1.892-1.933-5.554-1.485-5.412,2.055a2.723,2.723,0,0,0,1.079,2.156c0,.02.02.061.02.081a1.367,1.367,0,0,0-.956,1.3c-.02.041-.061.061-.081.1-2.808-1.078-5.92,3.682-2.686,5.147a.863.863,0,0,0-.183.285,2.391,2.391,0,0,0-.508.142,1.131,1.131,0,0,0-.611.692,1.4,1.4,0,0,0-1.464,1.3v.142a2.524,2.524,0,0,0-1.078,1.933c-.122,1.892,1.342,2.5,2.949,2.38a3.17,3.17,0,0,0,.2,2.97,1.414,1.414,0,0,0-.489.956c0,.285,0,.549.021.834a1.466,1.466,0,0,0,.976,1.4,4.653,4.653,0,0,0,.834.224,1.579,1.579,0,0,0-.223.407,2.1,2.1,0,0,0,.2,1.831,1.848,1.848,0,0,0,.122.305c-.732.61-1.017,1.689,0,2.95a1.262,1.262,0,0,0,1.139.407,4.485,4.485,0,0,0,.773,1.2,3.867,3.867,0,0,0,1.465,1.139,3.374,3.374,0,0,0,1.139.244h.02a4.948,4.948,0,0,0,.55,0,3.517,3.517,0,0,0,2.7-1.1,3.591,3.591,0,0,0,.55-.813,4.668,4.668,0,0,0,.813,1.18.939.939,0,0,0,.122.142,3.727,3.727,0,0,0,3.54,1.933,1.526,1.526,0,0,0,.325-.061,4.476,4.476,0,0,0,1.16-.1,3.146,3.146,0,0,0,1.017-.488,3.26,3.26,0,0,0,.631,0c1.363,1.424,3.539,2.014,4.963.265a3.237,3.237,0,0,0,.672-2.258,2.6,2.6,0,0,0,1.3.224,3.565,3.565,0,0,0,.569.834,3.285,3.285,0,0,0,5.045-.264,2.606,2.606,0,0,0,.366-.895,2.864,2.864,0,0,0,.387-1.078v-.081a5.641,5.641,0,0,0,.081-1.424,2.319,2.319,0,0,0,1.933-1.119,1.517,1.517,0,0,0-.041-1.892,2.59,2.59,0,0,0-.346-1.261,2.6,2.6,0,0,0,.672-.122,2.975,2.975,0,0,0,.427-.244Z" fill="#3d813d"/>
        <path id="패스_264" data-name="패스 264" d="M219.11,49.793l1.139,49.555-3.336-.122,1.628-46.015Z" fill="#010101"/>
        <path id="패스_265" data-name="패스 265" d="M227.39,51.889l-1.384,2.97-7,12.694-.122-2.522Z" fill="#010101"/>
        <path id="패스_266" data-name="패스 266" d="M213.19,51.829l5.391,12.226.672-.875-4.517-9.154Z" fill="#010101"/>
        <path id="패스_267" data-name="패스 267" d="M207.128,53.171l1.709,1.2,7.222,3.743-.346-1.139Z" fill="#010101"/>
        <path id="패스_268" data-name="패스 268" d="M230.99,57.4l-2.38,1.322-6.9,2.929.427-1.119Z" fill="#010101"/>
        <path id="패스_269" data-name="패스 269" d="M222.69,53.272l-.142,1.851.122,4.252.814-.59Z" fill="#010101"/>
        <path id="패스_270" data-name="패스 270" d="M210.77,61.43l1.1,1.566,6.856,6.652.2-1.607Z" fill="#010101"/>
        <path id="패스_271" data-name="패스 271" d="M220.432,90.07a7.733,7.733,0,0,0-1.159-2.177,3.965,3.965,0,0,0-.916-.834,1.048,1.048,0,0,0-.163-1,1.851,1.851,0,0,0-2.563-.549c-.081-.041-.162-.1-.244-.142a2.027,2.027,0,0,0-1.566-.488,2.931,2.931,0,0,0-.407.1,2.733,2.733,0,0,0-.061-.692,1.3,1.3,0,0,0-1.038-1.038c-.244-.061-.467-.122-.712-.163a1.381,1.381,0,0,0-.915.2,2.928,2.928,0,0,0-2.543-.712c.387-1.241.122-2.543-1.546-2.787a2.415,2.415,0,0,0-1.871.509c-.041,0-.082-.02-.122-.02a1.161,1.161,0,0,0-1.384.936.949.949,0,0,0-.712.366,3.832,3.832,0,0,0-.223.386,1.565,1.565,0,0,0-.285.1c-.712-2.848-5.391-1.241-4.944,1.2-.04,0-.061.041-.1.061a1.178,1.178,0,0,0-1.3.529c-.021,0-.041-.041-.061-.041a2.45,2.45,0,0,0-1.689-1.261c-3.051-.753-4.068,2.075-2.726,3.926a1.163,1.163,0,0,0-.671.916,1.371,1.371,0,0,0-.773.529h-.142a2.619,2.619,0,0,0-3.967,1.688.872.872,0,0,0,.2.814,2.2,2.2,0,0,0,1.485,2.36.155.155,0,0,1-.04.081c-.163.122-.305.224-.468.346a1.154,1.154,0,0,0-.468.814,3.039,3.039,0,0,0-.265.183,2.369,2.369,0,0,0-1.932.326,1.8,1.8,0,0,0-.61,2.767c0,.02-.021.041-.021.081-.61,2.4,1.038,3.052,2.95,3.011,0,.9,1.017,1.749,2.36,1.871a.531.531,0,0,0,.142.163.758.758,0,0,0-.183.387,1.721,1.721,0,0,1-.041.325c-.081.1-.142.2-.224.326-.488.813.407,1.668,1.282,1.668h1c.142,0,1.261,1.119,1.383,1.1,0,0,17.088-1.424,23.74-.956,3.906.285,5.065-3.194,4.048-4.536a1.513,1.513,0,0,0,.1-.509,2.4,2.4,0,0,0,.61-.732,3.222,3.222,0,0,0,.305-.915,1.206,1.206,0,0,0,.1-.244c.387-1.241-1.526-2.523-2.441-3.316a.551.551,0,0,1-.1-.122,4.442,4.442,0,0,0-.895-.854,2.86,2.86,0,0,0,.794-.285,4.03,4.03,0,0,0,1.892-2.2c.04-.142.06-.285.1-.427l-.427-.814c.041-.305.488.163.407-.163Z" fill="#94b43d"/>
        <path id="패스_272" data-name="패스 272" d="M141.91,192.476a5.132,5.132,0,0,0-.814-1.546,2.567,2.567,0,0,0-.651-.59.709.709,0,0,0-.122-.712,1.3,1.3,0,0,0-1.831-.386.7.7,0,0,0-.163-.1,1.3,1.3,0,0,0-1.4-.264,2.219,2.219,0,0,0-.041-.509.907.907,0,0,0-.753-.732c-.162-.041-.345-.082-.508-.123a.963.963,0,0,0-.651.143,2.158,2.158,0,0,0-1.81-.509c.264-.895.081-1.81-1.1-1.993a1.63,1.63,0,0,0-1.322.366.187.187,0,0,1-.1-.02.851.851,0,0,0-1,.671.587.587,0,0,0-.509.264,1.711,1.711,0,0,0-.142.265.424.424,0,0,0-.2.081c-.509-2.034-3.845-.874-3.519.855-.021,0-.041.02-.082.04a.883.883,0,0,0-.936.366.07.07,0,0,0-.04-.02,1.716,1.716,0,0,0-1.2-.895c-2.177-.549-2.91,1.485-1.933,2.807a.784.784,0,0,0-.468.651.889.889,0,0,0-.549.387h-.1a1.862,1.862,0,0,0-2.828,1.2.593.593,0,0,0,.143.57,1.564,1.564,0,0,0,1.058,1.668.1.1,0,0,1-.021.061c-.1.081-.224.163-.325.244a.826.826,0,0,0-.326.57l-.183.121a1.569,1.569,0,0,0-1.363.245,1.281,1.281,0,0,0-.427,1.973.1.1,0,0,1-.02.061c-.428,1.709.732,2.177,2.115,2.136,0,.631.733,1.241,1.689,1.343a.566.566,0,0,0,.1.122.76.76,0,0,0-.142.284.775.775,0,0,1-.02.224c-.061.081-.1.142-.163.224-.346.569.285,1.18.915,1.18h.712c.1,0,.895.793.977.773,0,0,12.165-1.017,16.905-.672,2.766.2,3.6-2.278,2.888-3.234a2.407,2.407,0,0,0,.082-.366,1.743,1.743,0,0,0,.427-.509,1.515,1.515,0,0,0,.2-.651c.021-.061.061-.122.082-.183.264-.895-1.078-1.79-1.729-2.36-.021-.02-.041-.061-.082-.1a4.486,4.486,0,0,0-.63-.61,1.91,1.91,0,0,0,.569-.2,2.855,2.855,0,0,0,1.343-1.566,1.753,1.753,0,0,0,.061-.305s-.3-.57-.3-.59c.04-.224.345.122.284-.122Z" fill="#94b43d"/>
        <path id="패스_273" data-name="패스 273" d="M431.569,207.7l-2.807-6.612a3.27,3.27,0,0,0-3.011-1.993H361.468a3.291,3.291,0,0,0-3.011,1.993L355.65,207.7a3.262,3.262,0,0,0,3.01,4.536h69.9A3.263,3.263,0,0,0,431.569,207.7Z" fill="#3d813d"/>
        <path id="패스_274" data-name="패스 274" d="M425.425,196.242l-2.38-5.594a2.755,2.755,0,0,0-2.542-1.688H366.127a2.755,2.755,0,0,0-2.543,1.688l-2.381,5.594a2.77,2.77,0,0,0,2.543,3.845h59.116a2.765,2.765,0,0,0,2.543-3.845Z" fill="#94b43d"/>
        <path id="패스_275" data-name="패스 275" d="M420.217,186.294l-1.993-4.72a2.332,2.332,0,0,0-2.136-1.424H370.317a2.3,2.3,0,0,0-2.136,1.424l-1.993,4.72a2.324,2.324,0,0,0,2.135,3.234H418.1a2.324,2.324,0,0,0,2.136-3.234Z" fill="#3d813d"/>
        <path id="패스_276" data-name="패스 276" d="M410.413,171.4h-34.38a2.508,2.508,0,0,0-2.2,1.3l-2.869,5.31a1.714,1.714,0,0,0,1.424,2.644h41.662a1.7,1.7,0,0,0,1.424-2.644l-2.889-5.33a2.49,2.49,0,0,0-2.2-1.3Z" fill="#94b43d"/>
        <path id="패스_277" data-name="패스 277" d="M408.561,167.436a18.609,18.609,0,0,0-31.226,0l-1.261,1.933a1.812,1.812,0,0,0,1.525,2.807h30.7a1.816,1.816,0,0,0,1.526-2.807Z" fill="#3d813d"/>
        <path id="패스_278" data-name="패스 278" d="M388.381,217.559l-3.722-8.767a4.32,4.32,0,0,0-3.987-2.625H295.578a4.362,4.362,0,0,0-3.987,2.625l-3.723,8.767a4.333,4.333,0,0,0,3.987,6.021h92.539A4.335,4.335,0,0,0,388.381,217.559Z" fill="#94b43d"/>
        <path id="패스_279" data-name="패스 279" d="M380.265,202.4,377.112,195a3.653,3.653,0,0,0-3.377-2.218H301.742A3.645,3.645,0,0,0,298.386,195l-3.153,7.405a3.657,3.657,0,0,0,3.356,5.085h78.279a3.661,3.661,0,0,0,3.377-5.085Z" fill="#3d813d"/>
        <path id="패스_280" data-name="패스 280" d="M373.368,189.22l-2.644-6.245A3.084,3.084,0,0,0,367.9,181.1H307.3a3.042,3.042,0,0,0-2.827,1.871l-2.645,6.245a3.074,3.074,0,0,0,2.828,4.273h65.89A3.071,3.071,0,0,0,373.368,189.22Z" fill="#94b43d"/>
        <path id="패스_281" data-name="패스 281" d="M360.39,169.508H314.863a3.307,3.307,0,0,0-2.909,1.729l-3.784,7.039a2.265,2.265,0,0,0,1.892,3.5h55.169a2.265,2.265,0,0,0,1.893-3.5l-3.845-7.039a3.307,3.307,0,0,0-2.909-1.729Z" fill="#3d813d"/>
        <path id="패스_282" data-name="패스 282" d="M357.908,164.261a24.654,24.654,0,0,0-41.357,0l-1.668,2.563a2.407,2.407,0,0,0,2.014,3.722h40.645a2.4,2.4,0,0,0,2.014-3.722l-1.668-2.563Z" fill="#94b43d"/>
        <path id="패스_283" data-name="패스 283" d="M241,228.768a9.666,9.666,0,0,0-1.3-2.828,4.781,4.781,0,0,0-1.1-1.118,1.238,1.238,0,0,0-.142-1.262c-1.078-1.383-2.319-1.4-3.194-.854-.1-.061-.183-.142-.285-.2a2.562,2.562,0,0,0-1.932-.733,2.355,2.355,0,0,0-.509.122c0-.284,0-.549-.02-.875a1.669,1.669,0,0,0-1.241-1.383c-.3-.081-.59-.183-.895-.264a1.577,1.577,0,0,0-1.16.2,3.752,3.752,0,0,0-3.153-1.058c.57-1.546.3-3.193-1.77-3.6a3.024,3.024,0,0,0-2.38.508c-.061,0-.1-.04-.163-.04a1.488,1.488,0,0,0-1.81,1.078,1.167,1.167,0,0,0-.916.407,2.183,2.183,0,0,0-.284.468,1.73,1.73,0,0,0-.346.1c-.712-3.621-6.693-1.912-6.286,1.18-.041,0-.081.041-.142.061a1.478,1.478,0,0,0-1.669.57c-.02,0-.04-.041-.081-.061a3.185,3.185,0,0,0-2.054-1.709c-3.784-1.16-5.249,2.339-3.683,4.76a1.443,1.443,0,0,0-.9,1.119,1.743,1.743,0,0,0-1.017.631h-.183c-1.566-1.058-4.028-.916-5.106,1.871a1.15,1.15,0,0,0,.2,1.038,2.77,2.77,0,0,0,1.729,3.051c0,.041-.021.061-.041.1-.2.122-.407.264-.61.386a1.536,1.536,0,0,0-.651.977,1.164,1.164,0,0,0-.326.224,2.9,2.9,0,0,0-2.441.284,2.241,2.241,0,0,0-.936,3.418c0,.041-.04.061-.04.1-.916,2.99,1.119,3.9,3.519,3.966-.081,1.119,1.16,2.258,2.848,2.523a1.643,1.643,0,0,0,.163.224,1.077,1.077,0,0,0-.265.467c-.02.143-.041.265-.061.407-.1.122-.183.244-.3.407-.671,1,.387,2.116,1.485,2.177.407,0,.834.041,1.241.041.183,0,1.526,1.505,1.668,1.464,0,0,21.563-.691,29.9.346,4.882.61,6.57-3.682,5.391-5.431a2.22,2.22,0,0,0,.162-.631,2.983,2.983,0,0,0,.794-.875,3.414,3.414,0,0,0,.427-1.119c.041-.1.1-.2.142-.3.55-1.546-1.749-3.255-2.848-4.333a1.019,1.019,0,0,0-.122-.162,6.981,6.981,0,0,0-1.058-1.14,3.658,3.658,0,0,0,1.018-.3,4.93,4.93,0,0,0,2.5-2.644,3.931,3.931,0,0,0,.142-.529l-.468-1.058c.082-.387.59.244.529-.183Z" fill="#3d813d"/>
        <path id="패스_284" data-name="패스 284" d="M370.012,120.484l-2.522,5.553h8.482l-2.664-6.326Z" fill="#90532d"/>
        <path id="패스_285" data-name="패스 285" d="M362.465,94.039a8.056,8.056,0,0,0,6.225-1.445,31.927,31.927,0,0,1-10.883,11.515c4.658.976,10.5-2.482,10.5-2.482a46.5,46.5,0,0,1-16.233,12.348,25.253,25.253,0,0,0,13.04-.793c-2.421,2.827-4.883,5.207-12,10.6,7.466-.875,12.349-1.872,18.675-1.322,5.7.488,11.107,1.281,16.376,3.478-3.052-3.824-6.632-8.4-9.7-12.226,3.662,1.79,8.138,3.133,11.982,2.442a57.078,57.078,0,0,1-12.327-12.9c1.932.936,6.1.651,8.218.346-3.885-2.217-7.262-6.815-9.7-10.558a11.755,11.755,0,0,0,6.184.854c-5.208-4.618-9.846-14.891-9.846-14.891A58.051,58.051,0,0,1,362.4,94.039Z" fill="#839e55"/>
        <path id="패스_286" data-name="패스 286" d="M368.914,116.355a9.654,9.654,0,0,0-1.3-2.828,4.765,4.765,0,0,0-1.1-1.119,1.236,1.236,0,0,0-.142-1.261c-1.078-1.383-2.319-1.4-3.194-.854-.1-.061-.183-.143-.285-.2a2.559,2.559,0,0,0-1.932-.732,2.3,2.3,0,0,0-.509.122c0-.285,0-.549-.02-.895a1.67,1.67,0,0,0-1.241-1.384c-.3-.081-.59-.183-.895-.264a1.578,1.578,0,0,0-1.16.2,3.746,3.746,0,0,0-3.152-1.057c.569-1.547.3-3.194-1.771-3.6a3.018,3.018,0,0,0-2.379.509c-.062,0-.1-.041-.163-.041a1.489,1.489,0,0,0-1.811,1.078,1.164,1.164,0,0,0-.915.407,2.148,2.148,0,0,0-.285.468,1.685,1.685,0,0,0-.346.1c-.712-3.621-6.693-1.913-6.286,1.179-.041,0-.081.041-.142.061a1.477,1.477,0,0,0-1.668.57c-.02,0-.041-.041-.082-.061a3.185,3.185,0,0,0-2.054-1.709c-3.784-1.159-5.249,2.34-3.682,4.76a1.44,1.44,0,0,0-.895,1.119,1.737,1.737,0,0,0-1.017.631H330.3c-1.566-1.058-4.028-.916-5.106,1.871a1.15,1.15,0,0,0,.2,1.038,2.77,2.77,0,0,0,1.729,3.051c0,.041-.021.061-.041.1-.2.122-.406.265-.61.387a1.531,1.531,0,0,0-.651.976,1.146,1.146,0,0,0-.325.224,2.9,2.9,0,0,0-2.442.285,2.24,2.24,0,0,0-.936,3.417c0,.041-.04.061-.04.1-.915,2.99,1.119,3.9,3.519,3.967-.081,1.118,1.16,2.258,2.848,2.522a1.644,1.644,0,0,0,.163.224,1.08,1.08,0,0,0-.265.468,2.742,2.742,0,0,1-.061.407c-.1.122-.182.244-.3.406-.671,1,.387,2.116,1.485,2.177.407,0,.834.041,1.241.041.183,0,1.526,1.505,1.668,1.464,0,0,21.563-.691,29.9.346,4.882.611,6.571-3.682,5.391-5.431a2.256,2.256,0,0,0,.163-.631,2.968,2.968,0,0,0,.793-.875,3.417,3.417,0,0,0,.427-1.118c.041-.1.1-.2.143-.306.549-1.546-1.75-3.254-2.848-4.332a1.1,1.1,0,0,0-.122-.163,6.932,6.932,0,0,0-1.058-1.139,3.644,3.644,0,0,0,1.017-.306,4.926,4.926,0,0,0,2.5-2.644,3.931,3.931,0,0,0,.142-.529l-.468-1.058c.082-.387.59.244.529-.183Z" fill="#3d813d"/>
        <path id="패스_287" data-name="패스 287" d="M204.036,101.5a3.6,3.6,0,0,1,.509-1.1,1.7,1.7,0,0,1,.427-.428.473.473,0,0,1,.061-.488.925.925,0,0,1,1.241-.346c.04-.02.081-.061.122-.082a.967.967,0,0,1,.753-.285c.081,0,.122.041.2.041v-.346a.625.625,0,0,1,.488-.529c.122-.041.224-.061.346-.1a.581.581,0,0,1,.448.081,1.455,1.455,0,0,1,1.24-.407c-.223-.61-.122-1.241.692-1.4a1.127,1.127,0,0,1,.936.2h.061a.6.6,0,0,1,.712.427.443.443,0,0,1,.366.163c.041.061.082.122.122.183a.379.379,0,0,1,.143.041c.284-1.424,2.624-.753,2.461.468a.1.1,0,0,1,.061.02.579.579,0,0,1,.651.224l.041-.02a1.274,1.274,0,0,1,.793-.671c1.485-.448,2.055.915,1.444,1.871a.562.562,0,0,1,.346.427.642.642,0,0,1,.387.244h.081a1.3,1.3,0,0,1,1.994.732.426.426,0,0,1-.082.407,1.107,1.107,0,0,1-.671,1.2v.041c.081.061.163.1.244.163a.5.5,0,0,1,.244.386c.041.02.082.061.122.081a1.109,1.109,0,0,1,.956.122.881.881,0,0,1,.367,1.343v.041c.366,1.159-.428,1.525-1.384,1.546.02.447-.447.874-1.119.976,0,.041-.04.061-.061.082a.8.8,0,0,1,.1.183.451.451,0,0,0,.02.162,1.079,1.079,0,0,1,.122.163c.265.387-.162.834-.59.854h-.488c-.061,0-.59.59-.651.57,0,0-8.442-.265-11.7.122-1.912.244-2.563-1.444-2.115-2.136a.537.537,0,0,1-.061-.244,1.221,1.221,0,0,1-.305-.346,1.171,1.171,0,0,1-.163-.447c0-.041-.041-.082-.061-.123-.224-.61.691-1.281,1.119-1.688,0-.02.04-.041.04-.061a4.217,4.217,0,0,1,.407-.447,1.588,1.588,0,0,1-.407-.122,1.929,1.929,0,0,1-.976-1.038c-.02-.061-.041-.142-.061-.2l.183-.407c-.041-.143-.224.1-.2-.061Z" fill="#3d813d"/>
      </g>
      <rect id="사각형_235" data-name="사각형 235" width="545" height="276" transform="translate(981 2610)" fill="#fff" opacity="0"/>
    </g>
  </g>
</svg>
