<svg xmlns="http://www.w3.org/2000/svg" xmlns:xlink="http://www.w3.org/1999/xlink" width="500" height="145" viewBox="0 0 500 145">
  <defs>
    <clipPath id="clip-logo">
      <rect width="500" height="145"/>
    </clipPath>
  </defs>
  <g id="logo" clip-path="url(#clip-logo)">
    <g id="logo-2" data-name="logo" transform="translate(-0.932 -0.646)">
      <path id="패스_162" data-name="패스 162" d="M6.776,73.839A45.612,45.612,0,0,0,4.4,91.1c.037,1.29,2.057.8,3.1.879,8.284,0,16.214-.224,24.367-.056.58,0,1.029-.374.991-.8a24.138,24.138,0,0,1,1.365-10.566c1.459-4.17,8.116-10.154,13.464-5.8,4.657,3.8,4.04,10.136,4.787,15.9.224,1.683,1.7,1.085,2.824,1.1,2.562,0,5.536.056,8.191.094,2.936.037,6.284.224,8.883.075,1.477-.075,26.873.112,27.958-.711.692-.524.3-5.292.281-6.246A34.9,34.9,0,0,0,98.485,73.2l-.729-1.87a41.143,41.143,0,0,0-5.592-9.5A34.093,34.093,0,0,0,85.9,55.68l-2.244-1.758a9.044,9.044,0,0,0-2.973-1.552c-2.338-.692-4.675-1.234-4.357-6.3,2.543-.655,2.188-2.711.243-3.759-2.094-1.141-4.451-1.253-6.882-1.421a47.937,47.937,0,0,0-10.173.449c-1.851.374-9.257,1.8-5.648,3.777.636,4.918-20.534,1.758-28.837,7.387C9.842,61.983,6.719,73.8,6.719,73.8ZM75.894,44.217c-.168,1.028-20.253.467-20.552-.243-.355-.8,6.3-1.533,9.369-1.515C68.395,42.459,76.23,42.2,75.894,44.217Z" transform="translate(4.586 51.95)" fill="#ede3d0"/>
      <path id="패스_163" data-name="패스 163" d="M60.147,57.324C56.2,51.732,48.4,47.449,39.482,47.693,16.91,48.328,8.57,67.946,8.327,82.682c-.037.037-.075.093-.112.131,3.31-.019,6.6-.075,9.893-.094v-.056c.243-10.005,3.609-25.789,20.44-26.368A16.559,16.559,0,0,1,54.723,67.74a51.923,51.923,0,0,1,3.048,14.232,2.815,2.815,0,0,1-.056.711h.673c2.936.037,6.284.224,8.883.075h.075c0-.374-.075-.786-.094-1.066-.093-1.5-1.01-15.727-7.125-24.4Z" transform="translate(9.712 61.097)" fill="#b79a82"/>
      <path id="패스_164" data-name="패스 164" d="M52.118,77.054a51.931,51.931,0,0,0-3.048-14.232A16.559,16.559,0,0,0,32.893,51.378c-16.831.58-20.2,16.382-20.44,26.368V77.8c2.88,0,5.76,0,8.659.056.58,0,1.029-.374.991-.8a24.144,24.144,0,0,1,1.365-10.566c1.459-4.17,8.116-10.155,13.465-5.8,4.657,3.8,4.039,10.136,4.787,15.9.224,1.683,1.7,1.085,2.824,1.1,2.356,0,5.031.037,7.518.075A2.156,2.156,0,0,0,52.118,77.054Z" transform="translate(15.365 66.013)" fill="#f2663c"/>
      <path id="패스_165" data-name="패스 165" d="M12.791,50.855a8.7,8.7,0,1,0-8.7-8.7A8.7,8.7,0,0,0,12.791,50.855Z" transform="translate(4.218 42.796)" fill="#f8d62c"/>
      <path id="패스_166" data-name="패스 166" d="M57.849,24.556a4.619,4.619,0,1,1-4.619-4.619A4.629,4.629,0,0,1,57.849,24.556Z" transform="translate(62.32 25.19)" fill="#28449c"/>
      <path id="패스_167" data-name="패스 167" d="M29.162,39.314a3.7,3.7,0,1,1-3.7-3.7A3.711,3.711,0,0,1,29.162,39.314Z" transform="translate(27.773 45.672)" fill="#ef3924"/>
      <path id="패스_168" data-name="패스 168" d="M18.72,32.334a3.7,3.7,0,1,1-3.7-3.7A3.711,3.711,0,0,1,18.72,32.334Z" transform="translate(13.847 36.555)" fill="#b0d235"/>
      <path id="패스_169" data-name="패스 169" d="M96.827,72.751a1.339,1.339,0,0,1-1.515-1.515V53.152l-4.077.056c-1.4,6.433-6.527,10.342-13.2,10.342-7.929,0-13.708-5.479-13.708-14.119S70.1,35.012,78.033,35.012A13.051,13.051,0,0,1,91.2,45.354l4.114.056V35.667c0-1.01.449-1.515,1.459-1.515h6.134a1.279,1.279,0,0,1,1.459,1.515l-1.1,35.55a1.339,1.339,0,0,1-1.515,1.515H96.827Zm-12.7-23.3c0-4.077-2.15-6.583-5.33-6.583-3.366,0-5.367,2.506-5.367,6.583s2.151,6.527,5.367,6.527S84.129,53.508,84.129,49.449Z" transform="translate(82.75 43.499)" fill="#58595b"/>
      <path id="패스_170" data-name="패스 170" d="M109.114,57.373a1.386,1.386,0,0,1-1.2,1.664c-4.862,1.253-13.016,1.7-20.141,1.608-2.263-.056-3.516-1.2-3.516-3.46l-.15-9.593a3.183,3.183,0,0,1,3.46-3.516l10.94-.056-.056-2.506H86.5a1.669,1.669,0,0,1-1.758-1.758V36.334A1.669,1.669,0,0,1,86.5,34.576l16.831.094a3.158,3.158,0,0,1,3.46,3.516l-.243,9a3.225,3.225,0,0,1-3.516,3.516l-10.7.15v2.562a107.1,107.1,0,0,0,14.811-.655c1.047-.15,1.459.243,1.552,1.16l.393,3.46ZM96.1,78.318c-2.263.056-3.46-1.2-3.516-3.46l-.3-9.949c-.056-1.01.449-1.5,1.459-1.5h5.517c1.01,0,1.459.5,1.459,1.5l-.094,6.171,19.187.206c1.047,0,1.459.393,1.459,1.309V76.41c0,1.1-.505,1.552-1.366,1.552Zm18.476-13.5A1.339,1.339,0,0,1,113.06,63.3l-.3-28.276c0-1.01.449-1.515,1.459-1.515h6.134a1.279,1.279,0,0,1,1.458,1.515l-.5,28.276c-.056,1.01-.505,1.515-1.515,1.515Z" transform="translate(108.588 42.595)" fill="#58595b"/>
      <path id="패스_171" data-name="패스 171" d="M101.981,49.431c0-8.49,6.133-14.418,14.063-14.418s13.969,5.928,13.969,14.418S123.936,63.55,116.044,63.55,101.981,57.921,101.981,49.431Zm20.59,0c0-4.077-2.357-6.583-5.778-6.583-3.61,0-5.836,2.506-5.836,6.583s2.357,6.527,5.836,6.527S122.571,53.489,122.571,49.431Zm11.895,23.3a1.34,1.34,0,0,1-1.517-1.515V35.667c0-1.01.45-1.515,1.461-1.515h6.133A1.279,1.279,0,0,1,142,35.667l-1.1,35.55a1.338,1.338,0,0,1-1.515,1.515Z" transform="translate(131.903 43.5)" fill="#58595b"/>
      <path id="패스_172" data-name="패스 172" d="M125.072,59.647c-2.264,0-2.954-.748-3.013-3.011L121.312,36.7a1.279,1.279,0,0,1,1.459-1.515h4.882c1.008,0,1.459.5,1.459,1.515v4.264l5.066-.056v-4.32c0-1.01.45-1.5,1.459-1.5h4.826c1.01,0,1.459.505,1.459,1.5l-.355,19.842c0,2.263-.712,2.955-2.957,3.011l-13.5.206Zm9.143-12.062-5.066.094.056,5.03,5.066-.056Zm20.235,31.38a1.428,1.428,0,0,1-1.515-1.5V69.577l-21.638.355a1.188,1.188,0,0,1-1.253-1.253V63.911a1.189,1.189,0,0,1,1.253-1.253H158.62a2.72,2.72,0,0,1,3.01,3.011c-.093,4.264-.205,7.742-.653,11.8a1.47,1.47,0,0,1-1.515,1.5H154.45Zm1.963-18.177a1.339,1.339,0,0,1-1.515-1.515V50.483h-2.656l-.205,8.789a1.339,1.339,0,0,1-1.515,1.515h-4.17a1.338,1.338,0,0,1-1.514-1.515l-.5-23.75c0-1.01.448-1.515,1.459-1.515h5.367a1.28,1.28,0,0,1,1.459,1.515l-.208,7.929h2.469V35.018c0-1.01.45-1.515,1.459-1.515h5.367a1.279,1.279,0,0,1,1.459,1.515l-1.1,24.255a1.339,1.339,0,0,1-1.515,1.515h-4.133Z" transform="translate(157.119 42.577)" fill="#58595b"/>
      <path id="패스_173" data-name="패스 173" d="M159.785,65.457a1.551,1.551,0,0,1-2.264-.056,32.248,32.248,0,0,1-4.88-6.227,40.722,40.722,0,0,1-6.789,7.032c-.9.748-2,.954-2.712.056l-2.208-2.711a1.707,1.707,0,0,1,.149-2.506c5.629-4.974,9.146-11.5,9.988-17.579l-7.892.206a1.4,1.4,0,0,1-1.515-1.515V37.238a1.432,1.432,0,0,1,1.515-1.515h14.868a2.134,2.134,0,0,1,2.317,2.356,38.835,38.835,0,0,1-3.57,14.156,38.292,38.292,0,0,0,6.469,7.237,1.476,1.476,0,0,1,.152,2.15l-3.666,3.815Zm6.527,7.275a1.338,1.338,0,0,1-1.515-1.515l-.245-17.429h-3.272a1.668,1.668,0,0,1-1.757-1.758V47.71a1.668,1.668,0,0,1,1.757-1.758h3.16l-.149-9.8c0-1.01.448-1.515,1.459-1.515h5.629a1.279,1.279,0,0,1,1.459,1.515l-.6,35.064a1.339,1.339,0,0,1-1.515,1.515Zm9.986,0a1.338,1.338,0,0,1-1.514-1.515V35.667c0-1.01.448-1.515,1.459-1.515h5.629a1.279,1.279,0,0,1,1.459,1.515l-1.1,35.55a1.338,1.338,0,0,1-1.515,1.515Z" transform="translate(182.105 43.5)" fill="#58595b"/>
      <path id="패스_174" data-name="패스 174" d="M180.866,66.1a1.669,1.669,0,0,1-2.058.505,24.667,24.667,0,0,1-6.733-4.32,28.775,28.775,0,0,1-7.031,5.423c-1.16.654-2.149.6-2.712-.393l-1.851-2.805a1.738,1.738,0,0,1,.6-2.469,21.729,21.729,0,0,0,10.455-14.568l-8.884.393a1.434,1.434,0,0,1-1.514-1.515v-4.17a1.434,1.434,0,0,1,1.514-1.515h4.322l.747-5.722A1.5,1.5,0,0,1,169.68,33.6l4.565.954a1.476,1.476,0,0,1,1.365,2l-.861,4.077h2.768a2.136,2.136,0,0,1,2.32,2.356,29.928,29.928,0,0,1-3.872,14.119,29.137,29.137,0,0,0,6.284,2.768,1.289,1.289,0,0,1,.709,2L180.9,66.1Zm4.824,7.424a1.338,1.338,0,0,1-1.514-1.515l-.243-14.923h-2.768a1.668,1.668,0,0,1-1.757-1.758v-4.32a1.668,1.668,0,0,1,1.757-1.758h2.656l-.149-12.305c0-1.01.448-1.515,1.459-1.515h5.629a1.279,1.279,0,0,1,1.459,1.515l-.6,35.064a1.338,1.338,0,0,1-1.515,1.515Zm9.986,0a1.339,1.339,0,0,1-1.515-1.515V36.462c0-1.01.45-1.515,1.459-1.515h5.629a1.278,1.278,0,0,1,1.459,1.515l-1.1,35.55a1.339,1.339,0,0,1-1.515,1.515Z" transform="translate(207.874 42.71)" fill="#58595b"/>
      <path id="패스_175" data-name="패스 175" d="M202.62,44.867a8.44,8.44,0,0,1,2.261,5.928c0,5.573-4.376,10.192-11.257,10.192S182.273,56.368,182.273,50.8a9.083,9.083,0,0,1,1.813-5.479l-2.618.056a1.434,1.434,0,0,1-1.515-1.515V39.8a1.434,1.434,0,0,1,1.515-1.515h7.687l.6-4.675c.149-1.047.861-1.459,1.965-1.365l5.573.711a1.461,1.461,0,0,1,1.365,2L198,38.229h7.125a1.187,1.187,0,0,1,1.253,1.253V43.5a1.187,1.187,0,0,1-1.253,1.253l-2.5.093Zm-11.26,35.7a2.335,2.335,0,0,1-2.5-2.506L188.611,65.7a2.31,2.31,0,0,1,2.506-2.506l24.7-.393a2.268,2.268,0,0,1,2.506,2.506l-.3,13.109c-.056,1.552-.954,2-2.506,2Zm6.975-30.333a4.315,4.315,0,0,0-4.469-4.563,4.389,4.389,0,0,0-4.562,4.563,4.338,4.338,0,0,0,4.562,4.563A4.265,4.265,0,0,0,198.335,50.234Zm11.6,18.832-12.7.15V74.4l12.7-.094V69.066Zm2.264-8.079a1.334,1.334,0,0,1-1.517-1.5l-.093-5.835h-3.066a1.668,1.668,0,0,1-1.757-1.758V47.99a1.668,1.668,0,0,1,1.757-1.758h2.954l-.093-9.5c0-1.01.45-1.515,1.459-1.515h6.135a1.28,1.28,0,0,1,1.459,1.515l-.506,22.759c-.056,1.01-.5,1.5-1.515,1.5Z" transform="translate(233.103 40.895)" fill="#58595b"/>
      <path id="패스_176" data-name="패스 176" d="M226.369,59.187c.093.954-.56,1.309-1.4,1.4a201.633,201.633,0,0,1-24.555,1.4,1.432,1.432,0,0,1-1.515-1.515V56.961a1.432,1.432,0,0,1,1.515-1.515h4.077l-.056-7.387c0-1.01.392-1.552,1.4-1.552h5.33c1.01,0,1.515.449,1.515,1.459l-.093,7.424c4.114-.094,8.079-.243,12.063-.6.952-.094,1.365.393,1.459,1.365l.3,3.011Zm-9.538-6.433c-.954-.093-1.309-.9-1.2-2.169a84.1,84.1,0,0,0,.093-8.733H202.075a1.188,1.188,0,0,1-1.253-1.253V36.334a1.189,1.189,0,0,1,1.253-1.253h18.777a2.744,2.744,0,0,1,3.01,3.011V38.6a69.83,69.83,0,0,1-1.16,13.016,1.662,1.662,0,0,1-1.907,1.515l-3.965-.355Zm-6.173,25.564c-2.261.056-3.458-1.2-3.514-3.46l-.3-8.939c-.056-1.01.448-1.5,1.459-1.5h5.517c1.01,0,1.459.505,1.459,1.5l-.093,5.274h19.691c1.048,0,1.459.393,1.459,1.309V76.41c0,1.1-.5,1.552-1.365,1.552Zm19.075-12.754a1.339,1.339,0,0,1-1.515-1.515l-.392-29.024c0-1.01.448-1.515,1.459-1.515h6.133a1.28,1.28,0,0,1,1.461,1.515l-.245,10.4h4.17a1.67,1.67,0,0,1,1.76,1.758V51.3a1.67,1.67,0,0,1-1.76,1.758h-4.376l-.243,11a1.338,1.338,0,0,1-1.515,1.515h-4.938Z" transform="translate(258.368 42.595)" fill="#58595b"/>
      <path id="패스_177" data-name="패스 177" d="M70.975,59.962a2.6,2.6,0,0,0-.954-.729,2.97,2.97,0,0,0-1.234-.243,3.043,3.043,0,0,0-1.627.449,3.114,3.114,0,0,0-1.122,1.347,4.9,4.9,0,0,0-.411,2.113,4.985,4.985,0,0,0,.411,2.132,2.975,2.975,0,0,0,1.122,1.347,2.846,2.846,0,0,0,1.627.449,3.3,3.3,0,0,0,1.234-.225,2.556,2.556,0,0,0,.954-.711,2.593,2.593,0,0,0,.524-1.122h1.608a4.1,4.1,0,0,1-.748,1.833,3.915,3.915,0,0,1-1.515,1.234,4.886,4.886,0,0,1-4.488-.206,4.282,4.282,0,0,1-1.664-1.87,7.14,7.14,0,0,1,0-5.722,4.426,4.426,0,0,1,1.683-1.87,4.591,4.591,0,0,1,2.431-.655,4.83,4.83,0,0,1,2.02.43,3.874,3.874,0,0,1,1.515,1.216,4.583,4.583,0,0,1,.785,1.908H71.517a2.437,2.437,0,0,0-.5-1.141Z" transform="translate(82.558 74.205)" fill="#58595b"/>
      <path id="패스_178" data-name="패스 178" d="M71.127,68.038H69.574V57.584h1.515v3.909h.094a2.225,2.225,0,0,1,.86-1.029,2.721,2.721,0,0,1,1.459-.355,2.9,2.9,0,0,1,1.421.337,2.339,2.339,0,0,1,.935,1.01,3.609,3.609,0,0,1,.337,1.627v4.974H74.642V63.269a1.889,1.889,0,0,0-.449-1.347,1.565,1.565,0,0,0-1.216-.468,2.018,2.018,0,0,0-.972.225,1.666,1.666,0,0,0-.673.673,2.359,2.359,0,0,0-.243,1.066v4.656Z" transform="translate(89.732 74.301)" fill="#58595b"/>
      <path id="패스_179" data-name="패스 179" d="M74.556,59.1a.878.878,0,0,1-.355-.337.83.83,0,0,1-.131-.449.786.786,0,0,1,.131-.449,1.226,1.226,0,0,1,.355-.337,1.109,1.109,0,0,1,.486-.131.905.905,0,0,1,.486.131.877.877,0,0,1,.355.337.828.828,0,0,1,.131.449.89.89,0,0,1-.131.468.973.973,0,0,1-.355.318,1.09,1.09,0,0,1-.486.112.907.907,0,0,1-.486-.131Zm-.281,1.328h1.552v7.835H74.276Z" transform="translate(95.626 74.056)" fill="#58595b"/>
      <path id="패스_180" data-name="패스 180" d="M78.114,68.038H76.562V57.584h1.552Z" transform="translate(98.886 74.301)" fill="#58595b"/>
      <path id="패스_181" data-name="패스 181" d="M80.419,67.7a3.1,3.1,0,0,1-1.16-1.4,5.131,5.131,0,0,1-.43-2.151,5.22,5.22,0,0,1,.43-2.169,3.078,3.078,0,0,1,2.88-1.889,2.5,2.5,0,0,1,1.122.224,2.283,2.283,0,0,1,.692.505,3.37,3.37,0,0,1,.449.654h.075v-3.89h1.552V68.038h-1.5V66.8h-.112a3.218,3.218,0,0,1-.467.655,2.419,2.419,0,0,1-.711.524,2.469,2.469,0,0,1-1.1.224,3.012,3.012,0,0,1-1.683-.486Zm.224-2.169a2.3,2.3,0,0,0,.711.991,1.715,1.715,0,0,0,1.122.355,1.761,1.761,0,0,0,1.1-.337,2.273,2.273,0,0,0,.711-.972,3.846,3.846,0,0,0,.243-1.459,3.587,3.587,0,0,0-.243-1.421,2.117,2.117,0,0,0-.692-.935,1.8,1.8,0,0,0-1.1-.337,1.751,1.751,0,0,0-1.122.355,2.044,2.044,0,0,0-.692.954,4.556,4.556,0,0,0,0,2.824Z" transform="translate(101.828 74.301)" fill="#58595b"/>
      <path id="패스_182" data-name="패스 182" d="M83.718,58.78h1.5v1.234h.094a1.985,1.985,0,0,1,.748-.991,2.122,2.122,0,0,1,1.215-.374,4.072,4.072,0,0,1,.673.038v1.477s-.206-.037-.374-.056c-.168,0-.318-.019-.449-.019a1.993,1.993,0,0,0-.954.224,1.534,1.534,0,0,0-.655.636,1.618,1.618,0,0,0-.243.9v4.787H83.718V58.78Z" transform="translate(108.232 75.723)" fill="#58595b"/>
      <path id="패스_183" data-name="패스 183" d="M88.446,66.258a3.343,3.343,0,0,1-1.291-1.4,4.691,4.691,0,0,1-.449-2.113,4.83,4.83,0,0,1,.449-2.132,3.357,3.357,0,0,1,3.179-1.945,3.618,3.618,0,0,1,1.739.411,3.132,3.132,0,0,1,1.272,1.29,4.664,4.664,0,0,1,.486,2.225v.542H88.259a2.714,2.714,0,0,0,.3,1.272,1.988,1.988,0,0,0,.767.8,2.545,2.545,0,0,0,2.206.056,1.5,1.5,0,0,0,.655-.617h1.552a2.653,2.653,0,0,1-.617,1.122A3.192,3.192,0,0,1,92,66.52a4.318,4.318,0,0,1-1.533.262,3.765,3.765,0,0,1-1.982-.5ZM92.3,61.995a2.238,2.238,0,0,0-.243-1.066,1.739,1.739,0,0,0-.692-.729,2.158,2.158,0,0,0-2.094.019,1.872,1.872,0,0,0-.729.748,2.192,2.192,0,0,0-.3,1.029Z" transform="translate(112.126 75.744)" fill="#58595b"/>
      <path id="패스_184" data-name="패스 184" d="M92.9,66.595H91.347V58.759h1.5v1.29h.094a2.246,2.246,0,0,1,.879-1.028,2.7,2.7,0,0,1,1.44-.355,2.782,2.782,0,0,1,1.4.337,2.337,2.337,0,0,1,.935,1.01,3.6,3.6,0,0,1,.337,1.627v4.975H96.4V61.826a1.889,1.889,0,0,0-.449-1.347,1.577,1.577,0,0,0-1.216-.486,1.994,1.994,0,0,0-.954.224,1.481,1.481,0,0,0-.636.673,2.359,2.359,0,0,0-.225,1.066v4.657Z" transform="translate(118.194 75.744)" fill="#58595b"/>
      <path id="패스_185" data-name="패스 185" d="M97.138,61.305H95.867V57.584h1.272Z" transform="translate(124.129 74.301)" fill="#58595b"/>
      <path id="패스_186" data-name="패스 186" d="M102.238,60.175a1.633,1.633,0,0,0-.991-.262,2,2,0,0,0-.767.131,1.474,1.474,0,0,0-.543.374.8.8,0,0,0-.187.542.726.726,0,0,0,.3.6,2.09,2.09,0,0,0,.935.393l1.234.281a3.225,3.225,0,0,1,1.607.767,1.827,1.827,0,0,1,.544,1.347,2.07,2.07,0,0,1-.394,1.253,2.561,2.561,0,0,1-1.1.86,4.333,4.333,0,0,1-1.7.3,3.74,3.74,0,0,1-2.226-.6,2.4,2.4,0,0,1-.972-1.7h1.571c.131.711.654,1.047,1.571,1.047a2.294,2.294,0,0,0,1.216-.281.937.937,0,0,0,.468-.786.827.827,0,0,0-.3-.636,2.1,2.1,0,0,0-.916-.393l-1.234-.262a3.1,3.1,0,0,1-1.608-.786A1.832,1.832,0,0,1,98.2,61a2.14,2.14,0,0,1,.374-1.234,2.489,2.489,0,0,1,1.066-.823,3.891,3.891,0,0,1,1.59-.3,3.722,3.722,0,0,1,1.516.281,2.562,2.562,0,0,1,1.027.786,2.511,2.511,0,0,1,.45,1.178h-1.5a1.238,1.238,0,0,0-.487-.748Z" transform="translate(126.858 75.712)" fill="#58595b"/>
      <path id="패스_187" data-name="패스 187" d="M104.85,57.584h3.834a4.158,4.158,0,0,1,1.832.355,2.452,2.452,0,0,1,1.1.972,2.733,2.733,0,0,1,.373,1.421,2.115,2.115,0,0,1-.485,1.459,2.493,2.493,0,0,1-1.272.748v.094a2.068,2.068,0,0,1,1.048.355,2.217,2.217,0,0,1,.8.9,2.761,2.761,0,0,1,.32,1.347,2.923,2.923,0,0,1-.376,1.459,2.58,2.58,0,0,1-1.178.991,4.747,4.747,0,0,1-1.981.355h-4V57.584Zm3.7,4.526a2.225,2.225,0,0,0,.952-.206,1.55,1.55,0,0,0,.674-.58,1.5,1.5,0,0,0,.243-.86,1.4,1.4,0,0,0-.467-1.1,2.008,2.008,0,0,0-1.384-.411h-2.133v3.16Zm.168,4.582a2.483,2.483,0,0,0,1.589-.43,1.393,1.393,0,0,0,.523-1.1,1.727,1.727,0,0,0-.243-.916,1.847,1.847,0,0,0-.709-.655,2.5,2.5,0,0,0-1.085-.243h-2.32v3.329h2.264Z" transform="translate(135.84 74.301)" fill="#58595b"/>
      <path id="패스_188" data-name="패스 188" d="M110.389,62.649a4.556,4.556,0,0,1,2.114-.617c1.1-.056,1.795-.093,2.056-.112v-.636a1.275,1.275,0,0,0-.411-1.029,1.759,1.759,0,0,0-1.2-.355,2.122,2.122,0,0,0-1.085.262,1.177,1.177,0,0,0-.541.729h-1.533a2.216,2.216,0,0,1,.485-1.16,2.846,2.846,0,0,1,1.1-.785,4.329,4.329,0,0,1,1.608-.281,4.621,4.621,0,0,1,1.44.224,2.331,2.331,0,0,1,1.16.841,2.633,2.633,0,0,1,.469,1.665v5.218h-1.5V65.548H114.5a2.407,2.407,0,0,1-.859.879,2.752,2.752,0,0,1-1.477.374,3.09,3.09,0,0,1-1.346-.281,2.178,2.178,0,0,1-1.291-2.113,1.871,1.871,0,0,1,.821-1.739Zm1.085,2.6a1.91,1.91,0,0,0,1.085.3,2.141,2.141,0,0,0,1.066-.243,1.673,1.673,0,0,0,.691-.655,1.6,1.6,0,0,0,.243-.879v-.711l-1.851.131a2.345,2.345,0,0,0-1.216.355,1.007,1.007,0,0,0-.429.86A.938.938,0,0,0,111.474,65.249Z" transform="translate(141.964 75.744)" fill="#58595b"/>
      <path id="패스_189" data-name="패스 189" d="M115.686,66.258a3.33,3.33,0,0,1-1.291-1.4,4.667,4.667,0,0,1-.45-2.113,4.8,4.8,0,0,1,.45-2.132,3.357,3.357,0,0,1,3.178-1.945,3.616,3.616,0,0,1,1.739.411,3.122,3.122,0,0,1,1.272,1.29,4.672,4.672,0,0,1,.485,2.225v.542H115.5a2.72,2.72,0,0,0,.3,1.272,1.988,1.988,0,0,0,.765.8,2.548,2.548,0,0,0,2.208.056,1.5,1.5,0,0,0,.653-.617h1.552a2.656,2.656,0,0,1-.616,1.122,3.2,3.2,0,0,1-1.122.748,4.318,4.318,0,0,1-1.533.262,3.756,3.756,0,0,1-1.981-.5Zm3.851-4.264a2.241,2.241,0,0,0-.243-1.066,1.737,1.737,0,0,0-.691-.729,2.161,2.161,0,0,0-2.1.019,1.868,1.868,0,0,0-.728.748,2.17,2.17,0,0,0-.3,1.029Z" transform="translate(147.732 75.744)" fill="#58595b"/>
      <path id="패스_190" data-name="패스 190" d="M118.593,57.584h1.552v5.928h.133l3.1-3.31h1.851l-3.178,3.366,3.384,4.469H123.55l-2.656-3.516-.749.729v2.786h-1.552Z" transform="translate(153.809 74.301)" fill="#58595b"/>
      <path id="패스_191" data-name="패스 191" d="M125.157,60.437v8.34a2.442,2.442,0,0,1-.637,1.814,2.58,2.58,0,0,1-1.851.636h-.317V69.9h.243a1,1,0,0,0,.784-.281,1.224,1.224,0,0,0,.243-.842v-8.34h1.536Zm-1.272-1.328a.882.882,0,0,1-.357-.337.829.829,0,0,1-.131-.449.785.785,0,0,1,.131-.449,1.232,1.232,0,0,1,.357-.337,1.106,1.106,0,0,1,.485-.131.9.9,0,0,1,.485.131.866.866,0,0,1,.357.337.828.828,0,0,1,.131.449.89.89,0,0,1-.131.468.96.96,0,0,1-.357.318,1.087,1.087,0,0,1-.485.112.9.9,0,0,1-.485-.131Z" transform="translate(158.748 74.066)" fill="#58595b"/>
      <path id="패스_192" data-name="패스 192" d="M126.9,66.258a3.33,3.33,0,0,1-1.29-1.4,4.666,4.666,0,0,1-.45-2.113,4.8,4.8,0,0,1,.45-2.132,3.357,3.357,0,0,1,3.178-1.945,3.616,3.616,0,0,1,1.739.411,3.122,3.122,0,0,1,1.272,1.29,4.672,4.672,0,0,1,.485,2.225v.542h-5.573a2.692,2.692,0,0,0,.3,1.272,1.988,1.988,0,0,0,.765.8,2.548,2.548,0,0,0,2.208.056,1.5,1.5,0,0,0,.653-.617h1.552a2.656,2.656,0,0,1-.616,1.122,3.2,3.2,0,0,1-1.122.748,4.318,4.318,0,0,1-1.533.262,3.756,3.756,0,0,1-1.981-.5Zm3.851-4.264a2.241,2.241,0,0,0-.243-1.066,1.737,1.737,0,0,0-.691-.729,2.161,2.161,0,0,0-2.1.019,1.868,1.868,0,0,0-.728.748,2.17,2.17,0,0,0-.3,1.029Z" transform="translate(162.387 75.744)" fill="#58595b"/>
      <path id="패스_193" data-name="패스 193" d="M132.344,57.584h6.565v1.365h-4.975v3.16h4.621v1.365h-4.621v3.2h5.031v1.365h-6.621Z" transform="translate(171.787 74.301)" fill="#58595b"/>
      <path id="패스_194" data-name="패스 194" d="M140.112,61.753l1.741-3.048h1.683l-2.45,3.908,2.45,3.927h-1.683l-1.76-2.936-1.739,2.936h-1.683l2.432-3.927-2.413-3.908h1.7Z" transform="translate(177.443 75.797)" fill="#58595b"/>
      <path id="패스_195" data-name="패스 195" d="M141.159,58.759h1.5v1.272h.131a3.225,3.225,0,0,1,.45-.636,2.283,2.283,0,0,1,.691-.5,2.5,2.5,0,0,1,1.122-.224,3.078,3.078,0,0,1,2.88,1.889,5.166,5.166,0,0,1,.429,2.169,5.082,5.082,0,0,1-.411,2.151,3.209,3.209,0,0,1-1.16,1.4,3.119,3.119,0,0,1-1.7.486,2.315,2.315,0,0,1-1.44-.411,3.21,3.21,0,0,1-.824-.972h-.093v4.17h-1.552V58.759Zm1.757,5.367a2.123,2.123,0,0,0,.693.973,1.964,1.964,0,0,0,2.226-.019,2.189,2.189,0,0,0,.709-.991,4.193,4.193,0,0,0,.243-1.421,3.684,3.684,0,0,0-.243-1.4,2.045,2.045,0,0,0-.691-.954,1.89,1.89,0,0,0-1.141-.355,1.758,1.758,0,0,0-1.1.337,2.008,2.008,0,0,0-.693.935,4.147,4.147,0,0,0-.243,1.44A3.851,3.851,0,0,0,142.916,64.126Z" transform="translate(183.306 75.744)" fill="#58595b"/>
      <path id="패스_196" data-name="패스 196" d="M147.426,66.258a3.36,3.36,0,0,1-1.291-1.4,4.7,4.7,0,0,1-.448-2.113,4.836,4.836,0,0,1,.448-2.132,3.357,3.357,0,0,1,3.181-1.945,3.616,3.616,0,0,1,1.739.411,3.136,3.136,0,0,1,1.272,1.29,4.672,4.672,0,0,1,.485,2.225v.542h-5.573a2.72,2.72,0,0,0,.3,1.272,2.008,2.008,0,0,0,.768.8,2.286,2.286,0,0,0,1.141.281,2.314,2.314,0,0,0,1.066-.224,1.5,1.5,0,0,0,.653-.617h1.552a2.656,2.656,0,0,1-.616,1.122,3.217,3.217,0,0,1-1.122.748,4.318,4.318,0,0,1-1.533.262,3.771,3.771,0,0,1-1.984-.5Zm3.853-4.264a2.241,2.241,0,0,0-.243-1.066,1.729,1.729,0,0,0-.693-.729,2.156,2.156,0,0,0-2.093.019,1.874,1.874,0,0,0-.73.748,2.435,2.435,0,0,0-.3,1.029Z" transform="translate(189.225 75.744)" fill="#58595b"/>
      <path id="패스_197" data-name="패스 197" d="M150.335,58.78h1.5v1.234h.093a1.976,1.976,0,0,1,.749-.991,2.119,2.119,0,0,1,1.216-.374,4.058,4.058,0,0,1,.672.038v1.477s-.205-.037-.373-.056c-.168,0-.32-.019-.45-.019a1.986,1.986,0,0,0-.952.224,1.538,1.538,0,0,0-.656.636,1.619,1.619,0,0,0-.243.9v4.787h-1.552V58.78Z" transform="translate(195.324 75.723)" fill="#58595b"/>
      <path id="패스_198" data-name="패스 198" d="M153.977,59.1a.876.876,0,0,1-.355-.337.829.829,0,0,1-.131-.449.785.785,0,0,1,.131-.449,1.223,1.223,0,0,1,.355-.337,1.125,1.125,0,0,1,.488-.131.9.9,0,0,1,.485.131.875.875,0,0,1,.355.337.812.812,0,0,1,.133.449.872.872,0,0,1-.133.468.971.971,0,0,1-.355.318,1.086,1.086,0,0,1-.485.112.918.918,0,0,1-.488-.131Zm-.28,1.328h1.552v7.835H153.7Z" transform="translate(199.469 74.056)" fill="#58595b"/>
      <path id="패스_199" data-name="패스 199" d="M157.581,66.258a3.33,3.33,0,0,1-1.29-1.4,4.667,4.667,0,0,1-.45-2.113,4.8,4.8,0,0,1,.45-2.132,3.357,3.357,0,0,1,3.178-1.945,3.616,3.616,0,0,1,1.739.411,3.122,3.122,0,0,1,1.272,1.29,4.671,4.671,0,0,1,.488,2.225v.542h-5.575a2.72,2.72,0,0,0,.3,1.272,1.987,1.987,0,0,0,.765.8,2.548,2.548,0,0,0,2.208.056,1.5,1.5,0,0,0,.653-.617h1.552a2.657,2.657,0,0,1-.616,1.122,3.2,3.2,0,0,1-1.122.748,4.318,4.318,0,0,1-1.533.262,3.756,3.756,0,0,1-1.981-.5Zm3.85-4.264a2.241,2.241,0,0,0-.243-1.066,1.737,1.737,0,0,0-.691-.729,2.161,2.161,0,0,0-2.1.019,1.868,1.868,0,0,0-.728.748,2.437,2.437,0,0,0-.3,1.029Z" transform="translate(202.497 75.744)" fill="#58595b"/>
      <path id="패스_200" data-name="패스 200" d="M162.04,66.595h-1.552V58.759h1.5v1.29h.093a2.264,2.264,0,0,1,.88-1.028,2.7,2.7,0,0,1,1.44-.355,2.783,2.783,0,0,1,1.4.337,2.341,2.341,0,0,1,.936,1.01,3.611,3.611,0,0,1,.336,1.627v4.975h-1.533V61.826a1.891,1.891,0,0,0-.448-1.347,1.582,1.582,0,0,0-1.216-.486,1.992,1.992,0,0,0-.954.224,1.48,1.48,0,0,0-.635.673,2.331,2.331,0,0,0-.226,1.066v4.657Z" transform="translate(208.578 75.744)" fill="#58595b"/>
      <path id="패스_201" data-name="패스 201" d="M166.624,66.251a3.3,3.3,0,0,1-1.272-1.44,4.727,4.727,0,0,1-.448-2.094,4.81,4.81,0,0,1,.448-2.113,3.53,3.53,0,0,1,1.272-1.44,3.886,3.886,0,0,1,3.5-.168,2.8,2.8,0,0,1,1.139.935,2.682,2.682,0,0,1,.506,1.384h-1.5a1.8,1.8,0,0,0-.581-.972,1.656,1.656,0,0,0-1.141-.393,1.891,1.891,0,0,0-1.12.337,2.266,2.266,0,0,0-.749.954,3.81,3.81,0,0,0-.261,1.44,4.083,4.083,0,0,0,.261,1.477,2,2,0,0,0,.73.954,1.872,1.872,0,0,0,1.1.337,1.892,1.892,0,0,0,1.122-.337,1.635,1.635,0,0,0,.6-.991h1.5a2.859,2.859,0,0,1-.506,1.365,2.9,2.9,0,0,1-1.12.935,4.047,4.047,0,0,1-3.573-.168Z" transform="translate(214.348 75.734)" fill="#58595b"/>
      <path id="패스_202" data-name="패스 202" d="M171.018,66.258a3.345,3.345,0,0,1-1.291-1.4,4.7,4.7,0,0,1-.448-2.113,4.836,4.836,0,0,1,.448-2.132,3.357,3.357,0,0,1,3.178-1.945,3.625,3.625,0,0,1,1.741.411,3.149,3.149,0,0,1,1.272,1.29,4.672,4.672,0,0,1,.485,2.225v.542h-5.573a2.719,2.719,0,0,0,.3,1.272,1.977,1.977,0,0,0,.768.8,2.542,2.542,0,0,0,2.205.056,1.489,1.489,0,0,0,.656-.617h1.552a2.636,2.636,0,0,1-.618,1.122,3.186,3.186,0,0,1-1.12.748,4.327,4.327,0,0,1-1.533.262,3.771,3.771,0,0,1-1.984-.5Zm3.853-4.264a2.241,2.241,0,0,0-.243-1.066,1.743,1.743,0,0,0-.693-.729,2.156,2.156,0,0,0-2.093.019,1.859,1.859,0,0,0-.73.748,2.194,2.194,0,0,0-.3,1.029Z" transform="translate(220.065 75.744)" fill="#58595b"/>
      <path id="패스_203" data-name="패스 203" d="M183.213,59.962a2.59,2.59,0,0,0-.954-.729,2.964,2.964,0,0,0-1.235-.243,3.047,3.047,0,0,0-1.627.449,3.132,3.132,0,0,0-1.122,1.347,4.908,4.908,0,0,0-.411,2.113,4.993,4.993,0,0,0,.411,2.132,3.113,3.113,0,0,0,1.122,1.347,2.957,2.957,0,0,0,1.627.449,3.288,3.288,0,0,0,1.235-.225,2.543,2.543,0,0,0,.954-.711,2.594,2.594,0,0,0,.523-1.122h1.61A4.132,4.132,0,0,1,184.6,66.6a3.917,3.917,0,0,1-1.515,1.234,4.885,4.885,0,0,1-4.488-.206,4.288,4.288,0,0,1-1.666-1.87,7.15,7.15,0,0,1,0-5.722,4.434,4.434,0,0,1,1.685-1.87,4.587,4.587,0,0,1,2.429-.655,4.835,4.835,0,0,1,2.021.43,3.875,3.875,0,0,1,1.515,1.216,4.363,4.363,0,0,1,.768,1.908h-1.61a2.438,2.438,0,0,0-.5-1.141Z" transform="translate(228.273 74.205)" fill="#58595b"/>
      <path id="패스_204" data-name="패스 204" d="M183.407,66.258a3.36,3.36,0,0,1-1.29-1.4,4.7,4.7,0,0,1-.448-2.113,4.836,4.836,0,0,1,.448-2.132,3.357,3.357,0,0,1,3.181-1.945,3.623,3.623,0,0,1,1.739.411,3.136,3.136,0,0,1,1.272,1.29,4.672,4.672,0,0,1,.485,2.225v.542H183.22a2.72,2.72,0,0,0,.3,1.272,1.993,1.993,0,0,0,.768.8,2.543,2.543,0,0,0,2.205.056,1.49,1.49,0,0,0,.656-.617H188.7a2.656,2.656,0,0,1-.616,1.122,3.218,3.218,0,0,1-1.122.748,4.328,4.328,0,0,1-1.533.262,3.771,3.771,0,0,1-1.984-.5Zm3.853-4.264a2.241,2.241,0,0,0-.243-1.066,1.728,1.728,0,0,0-.693-.729,2.156,2.156,0,0,0-2.093.019,1.874,1.874,0,0,0-.73.748,2.194,2.194,0,0,0-.3,1.029Z" transform="translate(235.391 75.744)" fill="#58595b"/>
      <path id="패스_205" data-name="패스 205" d="M187.868,66.595h-1.552V58.759h1.5v1.29h.093a2.237,2.237,0,0,1,.88-1.028,2.692,2.692,0,0,1,1.44-.355,2.783,2.783,0,0,1,1.4.337,2.337,2.337,0,0,1,.934,1.01,3.58,3.58,0,0,1,.338,1.627v4.975h-1.533V61.826a1.892,1.892,0,0,0-.45-1.347,1.575,1.575,0,0,0-1.216-.486,1.989,1.989,0,0,0-.952.224,1.473,1.473,0,0,0-.637.673,2.362,2.362,0,0,0-.224,1.066v4.657Z" transform="translate(241.589 75.744)" fill="#58595b"/>
      <path id="패스_206" data-name="패스 206" d="M194.883,61h-1.608v4.3a1.054,1.054,0,0,0,.261.823,1,1,0,0,0,.693.225,6.022,6.022,0,0,0,.784-.038v1.347a7.36,7.36,0,0,1-.971.056,2.817,2.817,0,0,1-1.141-.225,1.8,1.8,0,0,1-.824-.711,2.1,2.1,0,0,1-.3-1.16V61h-1.16V59.767h1.16V57.9h1.533v1.87h1.608V61Z" transform="translate(247.328 74.719)" fill="#58595b"/>
      <path id="패스_207" data-name="패스 207" d="M195.6,66.258a3.33,3.33,0,0,1-1.291-1.4,4.7,4.7,0,0,1-.45-2.113,4.836,4.836,0,0,1,.45-2.132,3.357,3.357,0,0,1,3.178-1.945,3.61,3.61,0,0,1,1.739.411,3.122,3.122,0,0,1,1.272,1.29,4.671,4.671,0,0,1,.488,2.225v.542H195.41a2.72,2.72,0,0,0,.3,1.272,1.988,1.988,0,0,0,.765.8,2.548,2.548,0,0,0,2.208.056,1.5,1.5,0,0,0,.653-.617h1.554a2.686,2.686,0,0,1-.618,1.122,3.175,3.175,0,0,1-1.122.748,4.308,4.308,0,0,1-1.533.262,3.762,3.762,0,0,1-1.981-.5Zm3.85-4.264a2.241,2.241,0,0,0-.243-1.066,1.737,1.737,0,0,0-.691-.729,2.161,2.161,0,0,0-2.1.019,1.868,1.868,0,0,0-.728.748,2.434,2.434,0,0,0-.3,1.029Z" transform="translate(251.645 75.744)" fill="#58595b"/>
      <path id="패스_208" data-name="패스 208" d="M198.5,58.78H200v1.234h.1a1.985,1.985,0,0,1,.747-.991,2.124,2.124,0,0,1,1.216-.374,4.059,4.059,0,0,1,.672.038v1.477s-.205-.037-.373-.056c-.168,0-.317-.019-.448-.019a2,2,0,0,0-.954.224,1.532,1.532,0,0,0-.653.636,1.619,1.619,0,0,0-.243.9v4.787H198.5V58.78Z" transform="translate(257.844 75.723)" fill="#58595b"/>
      <path id="패스_209" data-name="패스 209" d="M8.07,30.093,6.237,29.12a.775.775,0,0,0-.729,0l-1.851.954a.785.785,0,0,1-1.141-.823l.355-2.057a.773.773,0,0,0-.224-.692L1.169,25.044A.791.791,0,0,1,1.618,23.7l2.057-.3a.76.76,0,0,0,.6-.43l.935-1.87a.783.783,0,0,1,1.4,0l.916,1.87a.8.8,0,0,0,.6.43l2.057.3a.792.792,0,0,1,.43,1.347l-1.5,1.44a.756.756,0,0,0-.224.692l.337,2.057a.785.785,0,0,1-1.141.823Z" transform="translate(0 26.138)" fill="#dc2226"/>
      <path id="패스_210" data-name="패스 210" d="M53.694,49.436l-2.936-1.552a1.267,1.267,0,0,0-1.159,0l-2.955,1.533A1.25,1.25,0,0,1,44.83,48.09l.58-3.273a1.2,1.2,0,0,0-.355-1.1L42.68,41.395a1.249,1.249,0,0,1,.711-2.132l3.291-.467a1.263,1.263,0,0,0,.954-.692l1.477-2.974a1.248,1.248,0,0,1,2.244,0l1.459,2.992a1.265,1.265,0,0,0,.935.692l3.291.486a1.261,1.261,0,0,1,.692,2.151L55.34,43.77a1.285,1.285,0,0,0-.374,1.1l.543,3.273a1.249,1.249,0,0,1-1.833,1.309Z" transform="translate(54.06 44.072)" fill="#49a1da"/>
      <path id="패스_211" data-name="패스 211" d="M62.973,9.624a13.68,13.68,0,0,0-1.889-1.608A19.28,19.28,0,0,0,54.52,4.967C51.34,1.9,46.927,1.377,43.206,1.676a28.131,28.131,0,0,0-7.013,1.477A28.444,28.444,0,0,0,30.564,17.8,291.483,291.483,0,0,0,62.973,9.643Z" transform="translate(39.518 1.276)" fill="#28449c"/>
      <path id="패스_212" data-name="패스 212" d="M48.39,19.071A28.444,28.444,0,0,1,54.019,4.428a.231.231,0,0,0-.094.037,39.454,39.454,0,0,0-6.732-2.581A29.941,29.941,0,0,0,19.61,7.439,152.608,152.608,0,0,0,17.2,23.615C26.286,22.718,36.927,21.278,48.39,19.071Z" transform="translate(21.692 0)" fill="#ef3924"/>
      <path id="패스_213" data-name="패스 213" d="M31.494,3.557a20.091,20.091,0,0,0-2.151,1.982,3.167,3.167,0,0,1-.43-.019C21.6,5.184,11.933,9.56,8.286,21.173c5.2-.187,12.324-.58,20.8-1.421A152.661,152.661,0,0,1,31.494,3.576Z" transform="translate(9.808 3.882)" fill="#0ac"/>
      <path id="패스_214" data-name="패스 214" d="M37.339,25.234a102.348,102.348,0,0,0-9.107,8.808c.935.056,1.852.15,2.712.262,5.984.767,10.042,2.674,5.292,6.919a31.818,31.818,0,0,0-3.46,3.553c-9.2,11.052,3.067,15.484,3.067,15.484-5.162-9,2.412-11.8,11.258-14.83C54.226,42.981,62.193,40.4,64.979,34.3a1.879,1.879,0,0,1,.131-.281,31.585,31.585,0,0,0,1.945-5.629c-10.828-.655-20.739-1.758-29.716-3.142Z" transform="translate(36.408 31.949)" fill="#ee396f"/>
      <path id="패스_215" data-name="패스 215" d="M61.851,36.284a17.351,17.351,0,0,0,.112-9.014,11.747,11.747,0,0,0-1.8-3.7A14.755,14.755,0,0,0,55.286,19.3c-9.014,3.142-16.924,8.546-23.152,13.857,8.976,1.384,18.888,2.487,29.716,3.142Z" transform="translate(41.613 24.332)" fill="#f8d62c"/>
      <path id="패스_216" data-name="패스 216" d="M31.345,23.5a41.225,41.225,0,0,1,7.985,2.843,28.286,28.286,0,0,0,9.145,2.786c11.95,1.384,19.206-7.406,18.4-15.877a13.105,13.105,0,0,0-3.834-8.21,291.488,291.488,0,0,1-32.409,8.154A34.463,34.463,0,0,0,31.345,23.5Z" transform="translate(39.449 5.859)" fill="#f9a13f"/>
      <path id="패스_217" data-name="패스 217" d="M51.617,29.529a262.256,262.256,0,0,1-34.092-7.518A64.742,64.742,0,0,0,22,37.2a28.193,28.193,0,0,0,8.509,1.2c.187,0,.393-.019.617-.037a92.218,92.218,0,0,1,11.389,0,105.006,105.006,0,0,1,9.107-8.808Z" transform="translate(22.13 27.866)" fill="#8759a5"/>
      <path id="패스_218" data-name="패스 218" d="M48.689,8.552C37.244,10.777,26.584,12.2,17.5,13.1a104.528,104.528,0,0,0,.748,26.892,259.2,259.2,0,0,0,34.092,7.518c6.227-5.311,14.138-10.716,23.152-13.857a21.237,21.237,0,0,0-2.076-1.01c-6.62-2.787-15.484-2.768-22.161-1.047-8.266,2.113-22.8,4.357-21.207-5.161.9-5.348,4.469-7.742,8.9-8.415a27.8,27.8,0,0,1,10.435.823,34.462,34.462,0,0,1-.711-10.3Z" transform="translate(21.394 10.519)" fill="#49a1da"/>
      <path id="패스_219" data-name="패스 219" d="M8.086,18.6c3.7,13.577,16.906,20.534,26.481,23.133A63.864,63.864,0,0,1,30.1,26.546,183.925,183.925,0,0,1,8.086,18.6Z" transform="translate(9.541 23.386)" fill="#b0d235"/>
      <path id="패스_220" data-name="패스 220" d="M29.928,10.489c-8.471.842-15.6,1.234-20.8,1.421-.168.542-.337,1.085-.486,1.646-.262,1.066-.486,2.169-.655,3.329a32.842,32.842,0,0,0,.037,9.687c.168.991.374,1.926.617,2.861A185.163,185.163,0,0,0,30.657,37.38a104.507,104.507,0,0,1-.748-26.892Z" transform="translate(8.962 12.812)" fill="#32499e"/>
    </g>
  </g>
</svg>
