<svg xmlns="http://www.w3.org/2000/svg" xmlns:xlink="http://www.w3.org/1999/xlink" width="378" height="135" viewBox="0 0 378 135">
  <defs>
    <clipPath id="clip-mountain_2">
      <rect width="378" height="135"/>
    </clipPath>
  </defs>
  <g id="mountain_2" clip-path="url(#clip-mountain_2)">
    <g id="그룹_157" data-name="그룹 157" transform="translate(7691.489 22622.258) rotate(-2.25)">
      <path id="다운로드" d="M376.4,135.693a6.435,6.435,0,0,0-.258-1.831c-.019-.055-.028-.121-.048-.176a.078.078,0,0,0-.02-.045,4.446,4.446,0,0,0-1.549-2.338c-14.39-13.736-29.144-26.588-43.324-40.686a303.739,303.739,0,0,1-21.1-22.742c-7.7-7.933-12.312-13.279-20.366-16.446-6.493-2.551-13.989-.559-19.644,3.218S257.462,70.156,243.553,67.6c-10.967-3.584-14.849-16.606-25.281-31.034C210.53,25.857,202.831,11.714,189.24,4.379,176.891-2.284,166.119.158,157.137,6.3c-24.18,16.548-33.168,73.528-59.247,74.988-15.068,1.4-23.116-13.933-31.415-15.267-9.5-1.544-15.138.167-23.326,7C28.343,85.377,17.637,104.774,2.917,117.18c-3.288,2.773-2.525,9.933,1.633,10.093L327.2,139.715c14.745.569,29.563,1.805,44.322,1.709a2.6,2.6,0,0,0,2.719-.494c1.48-.968,2.22-3.131,2.169-5.226Z" transform="translate(-6801.869 -22899.402)" fill="#79c477"/>
      <rect id="사각형_166" data-name="사각형 166" width="376" height="142" transform="translate(-6801 -22899)" fill="#fff" opacity="0"/>
    </g>
  </g>
</svg>
