<svg xmlns="http://www.w3.org/2000/svg" xmlns:xlink="http://www.w3.org/1999/xlink" width="382" height="386" viewBox="0 0 382 386">
  <defs>
    <clipPath id="clip-tree">
      <rect width="382" height="386"/>
    </clipPath>
  </defs>
  <g id="tree" clip-path="url(#clip-tree)">
    <g id="그룹_159" data-name="그룹 159" transform="translate(7170 23697)">
      <g id="tree-2" data-name="tree" transform="translate(-7170 -23697)">
        <path id="패스_221" data-name="패스 221" d="M258.844,184.328c-1.068-1.358-14.727-16.724-15.785-18.071-18.87-24.023-34.087-29.115-53.736-46.877-16.9-15.276-38.19-48.933-47.515-78.268l5.6-2.676s8.058,14.9,8.956,16.584c12.49,23.613,22.375,39.2,41.375,55.713a472.548,472.548,0,0,0,66.127,48.684c1.258.768,8.3,5.631,11.043,5.052s3.655-3.445,5.471-6.76c19.42-35.484,25.271-50.43,38.43-70.689l4.074,1.967c-9.007,24.152-15.426,43.831-24.822,65.777l-12.141,39.488s-12.611,8.507-27.078-9.915Z" transform="translate(-15.165 -3.898)" fill="#73553d"/>
        <path id="패스_222" data-name="패스 222" d="M206.82,135.478c-40.447.778-104.906-9.6-129.039-10.943l-.319-4.513c25.44-4.194,83.67,7.068,107.382,4.313Z" transform="translate(-8.639 -12.076)" fill="#73553d"/>
        <path id="패스_223" data-name="패스 223" d="M361.194,399.649c-.569-15.746-5.661-90.709-6.419-106.454-1.727-35.764-9.675-49.313-17.283-60.265-13.069-18.811-24.262-33.6-41.305-48.914-1.258-1.129-7.349-2.317-9.046-2.317-1.208,0-8.337-.6-9.4,0-7.029,3.954-9.375,2.506-9,10.553.24,5.172,4.613,10.144,9,12.91s12.321,11.312,16.8,18.831c5.331,8.936,14.567,20.548,18.421,31.89,5.222,15.386,5.042,28.266,4.673,44.9-.129,5.96-4.293,72.377-5.082,78.3-1.068,7.988.31,12.58-.758,20.568h49.393Z" transform="translate(-28.035 -18.4)" fill="#73553d"/>
        <path id="패스_224" data-name="패스 224" d="M314.349,137.788c7.148-.948,19.779-2.915,24.831-5.171a16.414,16.414,0,0,0,7.4-6.939,76.171,76.171,0,0,0,8.576-21.217l2.467.489c-.689,2.2-3.735,12.88-4.653,14.987-3.534,8.138-1.8,5.462-5.411,11.043a22.226,22.226,0,0,1-5.143,5.043,16.723,16.723,0,0,1-6.14,2.3l-22.465,5.212.539-5.751Z" transform="translate(-32.608 -10.594)" fill="#73553d"/>
        <path id="패스_225" data-name="패스 225" d="M165.991,81.576c7.148-.948,19.779-2.915,24.831-5.172a16.41,16.41,0,0,0,7.4-6.939A76.167,76.167,0,0,0,206.8,48.248l2.467.489c-.689,2.2-3.735,12.88-4.653,14.987-3.534,8.137-1.8,5.462-5.411,11.043a22.218,22.218,0,0,1-5.142,5.042,17,17,0,0,1-6.141,2.306l-22.465,5.212Z" transform="translate(-17.563 -4.893)" fill="#73553d"/>
        <path id="패스_226" data-name="패스 226" d="M159.889,68.941c-5.152-.689-14.247-2.1-17.882-3.724a11.879,11.879,0,0,1-5.331-4.992,54.8,54.8,0,0,1-6.18-15.276l-1.777.359c.489,1.578,2.686,9.275,3.345,10.793,2.547,5.861,1.289,3.934,3.9,7.958a16.2,16.2,0,0,0,3.7,3.634,12.212,12.212,0,0,0,4.423,1.657q8.089,1.872,16.185,3.754l-.39-4.144Z" transform="translate(-13.837 -4.558)" fill="#73553d"/>
        <path id="패스_227" data-name="패스 227" d="M231.246,45.342c.369-9.6-3.645-19.9-10.873-24.162-7.1-4.183-15.246-3.545-22.954-2.456s-15.655,2.506-23.134-.329c-5.222-1.977-9.865-5.911-14.727-9.076-17.442-11.312-38.65-12.391-56.452-2.876-7.389,3.944-14.467,10-18.072,19.13s-2.726,21.7,3.614,28.2c5.931,6.081,14.318,5.282,21.826,4.513,31.831-3.255,62.472,2.257,94.014,7.089,6.26.959,12.889,1.008,18.431-2.686,5.442-3.634,8.068-10.294,8.337-17.343Z" transform="translate(-9.193 0)" fill="#008987"/>
        <path id="패스_228" data-name="패스 228" d="M220.486,21.191c-7.1-4.183-15.246-3.545-22.954-2.456S181.876,21.24,174.4,18.4c-5.222-1.977-9.865-5.911-14.727-9.076-17.442-11.312-38.65-12.391-56.452-2.876-7.389,3.944-14.467,10-18.072,19.13a28.763,28.763,0,0,0-1.108,3.435,45.207,45.207,0,0,1,9.355-6.57c17.812-9.515,39.019-8.427,56.452,2.875,4.873,3.155,9.506,7.089,14.728,9.076,7.478,2.836,15.426,1.418,23.133.329S203.562,33,210.661,37.185c7.219,4.253,11.243,14.557,10.873,24.162-.03.779-.09,1.558-.18,2.326a17.484,17.484,0,0,0,1.658-.978c5.442-3.634,8.067-10.294,8.337-17.343.369-9.6-3.645-19.9-10.873-24.162Z" transform="translate(-9.306 -0.001)" fill="#179491"/>
        <path id="패스_229" data-name="패스 229" d="M353.738,193.743c.359-9.316-3.544-19.31-10.543-23.433-6.889-4.054-14.787-3.434-22.266-2.376s-15.186,2.436-22.445-.32c-5.072-1.917-9.565-5.741-14.287-8.806-16.913-10.974-37.492-12.021-54.764-2.8-7.169,3.823-14.039,9.7-17.533,18.55s-2.636,21.048,3.5,27.348c5.762,5.9,13.889,5.122,21.177,4.383,30.883-3.155,60.606,2.187,91.2,6.88,6.07.928,12.51.979,17.882-2.606,5.282-3.525,7.828-9.995,8.087-16.824Z" transform="translate(-22.066 -15.189)" fill="#008987"/>
        <path id="패스_230" data-name="패스 230" d="M343.374,170.31c-6.889-4.054-14.786-3.434-22.265-2.376s-15.186,2.436-22.445-.32c-5.072-1.917-9.565-5.741-14.288-8.806-16.914-10.974-37.492-12.021-54.764-2.8-7.169,3.823-14.039,9.7-17.533,18.55-.12.31-.239.629-.35.949a46.067,46.067,0,0,1,6.56-4.233c17.273-9.226,37.851-8.177,54.765,2.8,4.722,3.065,9.226,6.88,14.288,8.806,7.259,2.756,14.967,1.378,22.445.32s15.376-1.678,22.265,2.376c7.009,4.124,10.9,14.118,10.544,23.433a28.733,28.733,0,0,1-.32,3.365,17.67,17.67,0,0,0,3.565-1.817c5.282-3.525,7.828-9.995,8.087-16.824.359-9.316-3.544-19.31-10.543-23.433Z" transform="translate(-22.256 -15.189)" fill="#179491"/>
        <path id="패스_231" data-name="패스 231" d="M379.77,79.323c-9.584-14.258-25.41-23.194-44.121-23.274-4.583-.02-11.832.519-15.776,2.606-8.556,4.523-10.8,11.392-17.493,17.942-6.43,6.31-16.295,8.736-24.282,13.449-2.955,1.747-5.931,4.313-5.691,7.458.219,2.875,3.075,5.012,5.921,6.391,11.432,5.541,25.261,4.413,38.281,4.273a224.224,224.224,0,0,1,38.629,2.926c5.242.858,10.494,1.907,15.815,1.787,9-.2,19.839-6.19,25.7-11.752a9.663,9.663,0,0,0,2.875-4.064c2.4-8.416-15.9-11.841-19.87-17.732Z" transform="translate(-28.408 -5.684)" fill="#32ab9e"/>
        <path id="패스_232" data-name="패스 232" d="M138.777,151.284c6.419-5.171,8.5-15.286,9.345-23.084.918-8.577-1.478-18-8.208-23.394a28.252,28.252,0,0,0-11.242-5.032,50.784,50.784,0,0,0-24.452.289c-10.853,2.836-20.807,9.276-32,9.985-10.374.659-20.308-3.685-30.343-6.4s-21.826-3.454-29.794,3.235c-3.714,3.115-6.12,7.489-8.107,11.9C1.71,123.8-.147,129.468,1.5,134.71c1.987,6.35,8.4,10.075,14.278,13.2,5.911,3.135,12.181,6.36,18.87,6.111,10.044-.369,18.551-8.448,28.6-8.876,10.723-.46,17.373,7.4,26.5,11.123,11.752,4.8,20.628,4.493,33.208,1.358,5.162-1.289,10.444-2.626,14.837-5.612.339-.229.669-.479.988-.739Z" transform="translate(-0.872 -9.981)" fill="#32ab9e"/>
        <path id="패스_233" data-name="패스 233" d="M140.213,104.806a28.252,28.252,0,0,0-11.242-5.032,50.784,50.784,0,0,0-24.452.289c-10.853,2.836-20.807,9.276-32,9.985-10.374.659-20.308-3.685-30.343-6.4s-21.826-3.454-29.794,3.235c-3.714,3.115-6.12,7.489-8.107,11.9-.15.34-.309.688-.459,1.038,7.638-3.884,17.423-3,25.95-.7,10.034,2.706,19.969,7.058,30.343,6.4,11.193-.709,21.147-7.149,32-9.984a51.031,51.031,0,0,1,24.452-.29,28.042,28.042,0,0,1,11.242,5.033c6.729,5.392,9.126,14.817,8.207,23.393a62.523,62.523,0,0,1-1.956,10.574,26.516,26.516,0,0,0,4.034-2.227c.339-.229.669-.479.988-.739,6.419-5.172,8.5-15.286,9.345-23.084C149.339,119.623,146.943,110.2,140.213,104.806Z" transform="translate(-1.17 -9.981)" fill="#58bbb0"/>
        <path id="패스_234" data-name="패스 234" d="M335.281,393.543a.05.05,0,1,0,0-.1A.05.05,0,1,0,335.281,393.543Z" transform="translate(-34.781 -39.901)" fill="#fff"/>
        <path id="패스_235" data-name="패스 235" d="M298.169,218.562a35.911,35.911,0,0,0,3.076,4.3c.988,1.368,2.007,2.706,2.985,4.083s1.947,2.766,2.885,4.164a35.007,35.007,0,0,0,2.836,4.163c.579.629,1.837-.03,1.5-.879a23.4,23.4,0,0,0-2.626-4.293q-1.573-2.321-3.265-4.552c-1.987-2.606-4.054-5.711-6.71-7.678-.43-.319-.879.279-.679.679Z" transform="translate(-31.017 -22.086)" fill="#8f7765"/>
        <path id="패스_236" data-name="패스 236" d="M314.858,243.015c.709,1.457,1.587,2.826,2.286,4.293a16.692,16.692,0,0,0,2,3.924c.209.25.589.03.6-.25a9.69,9.69,0,0,0-1.378-4.393,19.683,19.683,0,0,0-2.6-4.284c-.449-.529-1.188.15-.908.7Z" transform="translate(-32.709 -24.554)" fill="#8f7765"/>
        <path id="패스_237" data-name="패스 237" d="M326.119,268.759c.46,4.594,1.158,9.146,1.518,13.749.359,4.632.21,9.246.34,13.878a.794.794,0,0,0,1.588,0,79.8,79.8,0,0,0-.32-14.157,67.824,67.824,0,0,0-2.307-13.579c-.129-.439-.878-.379-.828.11Z" transform="translate(-33.855 -27.215)" fill="#8f7765"/>
        <path id="패스_238" data-name="패스 238" d="M329.374,256.7a174.4,174.4,0,0,1,4.014,22.9c.12,1.018,1.707,1.068,1.637,0a89.5,89.5,0,0,0-4.952-23.085A.362.362,0,0,0,329.374,256.7Z" transform="translate(-34.186 -25.988)" fill="#8f7765"/>
        <path id="패스_239" data-name="패스 239" d="M355.533,320.285c-.41,7.558.709,15.356,1.807,22.824.17,1.178,1.957.679,1.787-.489-1.068-7.448-1.518-15.027-2.8-22.435-.08-.469-.769-.33-.789.11Z" transform="translate(-36.831 -32.442)" fill="#8f7765"/>
        <path id="패스_240" data-name="패스 240" d="M351.71,339.267c0,3.514.758,7.079,1.068,10.584.149,1.677.26,3.364.34,5.052.079,1.637-.21,3.715.389,5.242a.685.685,0,0,0,1.308,0c.559-1.538.139-3.625.04-5.242-.11-1.777-.27-3.555-.459-5.331-.369-3.425-.7-7.159-1.937-10.4a.378.378,0,0,0-.739.1Z" transform="translate(-36.452 -34.37)" fill="#8f7765"/>
        <path id="패스_241" data-name="패스 241" d="M334.8,389.122c-.1,3.176-.279,6.35-.32,9.526-.02,1.537-.04,3.075-.049,4.622,0,1.278-.34,2.875.359,3.983a.476.476,0,0,0,.809,0c.659-1.058.359-2.485.359-3.694,0-1.637-.031-3.274-.05-4.9-.04-3.176-.219-6.35-.319-9.526a.385.385,0,0,0-.769,0Z" transform="translate(-34.692 -39.426)" fill="#8f7765"/>
        <path id="패스_242" data-name="패스 242" d="M340.31,396.911c.139,3.085.289,6.16.479,9.246.09,1.537.2,3.085.319,4.622a20.438,20.438,0,0,0,.439,4.2.609.609,0,0,0,1.189-.16,23.218,23.218,0,0,0-.23-4.622c-.11-1.448-.23-2.885-.35-4.333-.26-2.986-.569-5.971-.879-8.956-.059-.6-.988-.629-.958,0Z" transform="translate(-35.296 -40.206)" fill="#8f7765"/>
        <path id="패스_243" data-name="패스 243" d="M202.936,128.714c4.7,4.473,9.675,8.967,15.276,12.312.9.539,1.608-.779.8-1.378-5.192-3.823-10.564-7.359-15.5-11.522-.4-.34-.979.209-.589.589Z" transform="translate(-21.35 -12.983)" fill="#8f7765"/>
        <path id="패스_244" data-name="패스 244" d="M224.915,146.59c.819.639,1.637,1.288,2.456,1.936.619.49,1.3,1.218,2.107,1.238a.36.36,0,0,0,.34-.439c-.27-.768-1.148-1.2-1.808-1.637-.868-.58-1.737-1.168-2.6-1.758-.38-.26-.879.36-.5.65Z" transform="translate(-23.579 -14.793)" fill="#8f7765"/>
        <path id="패스_245" data-name="패스 245" d="M310.781,159.377a44.735,44.735,0,0,0,4.173-5.751c.669-1.059,1.308-2.137,1.927-3.225a11.536,11.536,0,0,0,1.477-3.035c.12-.529-.559-1.009-.958-.56a14.506,14.506,0,0,0-1.7,2.906c-.56,1.018-1.129,2.036-1.728,3.035-1.237,2.077-2.565,4.083-3.794,6.171-.219.369.31.809.609.469Z" transform="translate(-32.235 -14.87)" fill="#8f7765"/>
        <path id="패스_246" data-name="패스 246" d="M322.108,142.38a66.165,66.165,0,0,1,3.795-7.508.6.6,0,0,0-1.029-.6,34.206,34.206,0,0,0-3.534,7.9C321.17,142.66,321.929,142.85,322.108,142.38Z" transform="translate(-33.37 -13.588)" fill="#8f7765"/>
        <path id="패스_247" data-name="패스 247" d="M158.7,72.728a61.311,61.311,0,0,0,3.923,8.007c1.458,2.5,2.936,5.372,4.953,7.458.4.409,1.008-.11.768-.589-1.318-2.586-3.255-4.932-4.743-7.438-1.5-2.526-2.925-5.1-4.353-7.668C159.094,72.209,158.574,72.409,158.7,72.728Z" transform="translate(-16.876 -7.338)" fill="#8f7765"/>
        <path id="패스_248" data-name="패스 248" d="M167.78,83.646c.669,1.328,1.328,2.656,2,3.994a15.1,15.1,0,0,0,2.007,3.455c.259.3.739-.02.649-.379a15.18,15.18,0,0,0-1.807-3.564c-.749-1.278-1.5-2.556-2.257-3.844A.34.34,0,0,0,167.78,83.646Z" transform="translate(-17.795 -8.432)" fill="#8f7765"/>
        <path id="패스_249" data-name="패스 249" d="M185.449,133.968c2.9.1,6.18.56,9.025-.04a.291.291,0,0,0,0-.559c-2.845-.609-6.13-.14-9.025-.04a.325.325,0,0,0,0,.65Z" transform="translate(-19.559 -13.495)" fill="#8f7765"/>
        <path id="패스_250" data-name="패스 250" d="M191.071,130.5c2,.129,4.913.449,6.739-.549a.27.27,0,0,0-.059-.489,12.517,12.517,0,0,0-3.105.219,35.56,35.56,0,0,1-3.565.15.334.334,0,0,0,0,.669Z" transform="translate(-20.129 -13.125)" fill="#8f7765"/>
        <path id="패스_251" data-name="패스 251" d="M278.5,93.675a21.083,21.083,0,0,0-2.116,1.418,43.832,43.832,0,0,0,5.521-3.255C280.75,92.417,279.612,93.026,278.5,93.675Z" transform="translate(-28.813 -9.314)" fill="#32ab9e"/>
        <path id="패스_252" data-name="패스 252" d="M384.218,79.323c-9.585-14.258-25.41-23.194-44.121-23.274-4.583-.02-11.831.519-15.775,2.606a27.118,27.118,0,0,0-8.068,6.54,61.1,61.1,0,0,1,6.31-.3c18.721.08,34.536,9.006,44.121,23.274,3.964,5.891,22.265,9.315,19.869,17.732a9.58,9.58,0,0,1-2.875,4.063q-1.108,1.049-2.426,2.1a48.093,48.093,0,0,0,19.958-10.943,9.666,9.666,0,0,0,2.876-4.064C406.483,88.638,388.181,85.214,384.218,79.323Z" transform="translate(-32.856 -5.684)" fill="#58bbb0"/>
        <path id="패스_253" data-name="패스 253" d="M407.364,382.788c-.128-8.868-7.122-15.949-15.639-15.831-.27.006-.536.038-.805.053a13.114,13.114,0,0,0,.137-1.972c-.085-6.029-4.463-10.851-9.789-10.776a8.647,8.647,0,0,0-3.85.976c0-.092.008-.182.011-.282a10.124,10.124,0,0,0-10.1-10.132,9.761,9.761,0,0,0-2.888.483c-.209-13.189-10.486-23.727-22.984-23.544-11.1.157-20.2,8.729-21.973,19.887a8.95,8.95,0,0,0-6.173-2.477,9.325,9.325,0,0,0-6.9,3.5,19.386,19.386,0,0,0-14.008-5.769c-10.994.158-19.769,9.628-19.6,21.145.009.351.045.7.062,1.038a15.707,15.707,0,0,0-9.529,26.531,12.5,12.5,0,0,0,.327,24.732c5.785,5.336,23.591,7.988,69.037,5.59,53.115-2.8,65.888-7.163,66.132-13.459a41.428,41.428,0,0,0,3.158-7.308,16.279,16.279,0,0,0,5.36-12.392Z" transform="translate(-26.424 -32.631)" fill="#f37c56"/>
        <path id="패스_254" data-name="패스 254" d="M383.363,381.688a9.967,9.967,0,0,0-2.593.456c-.368-.5-.761-1-1.188-1.487,0-.352.017-.707,0-1.065-.435-9.687-7.881-17.231-16.625-16.834a14.611,14.611,0,0,0-7.269,2.345c0-.009,0-.018-.005-.035-.478-10.782-7.71-19.218-16.15-18.841-7.22.323-12.97,6.995-14.181,15.672-2.967-3.876-7.05-6.215-11.472-6.017-8.44.376-14.874,9.8-14.368,21.057a28.472,28.472,0,0,0,.452,3.85,12.836,12.836,0,0,0-3.417-.31,13.429,13.429,0,0,0-12.691,13.634c-8.515.651-14.37,5.415-14.857,10.846-2.649,29.6,115.775,8.439,115.775,8.439,7.033-.313,12.416-7.659,12.026-16.414s-6.407-15.59-13.439-15.277Z" transform="translate(-28.059 -35.111)" fill="#e86240"/>
        <path id="패스_255" data-name="패스 255" d="M372.251,396.064a6.7,6.7,0,0,0-1.714.3c-.241-.332-.5-.663-.785-.989,0-.235.008-.471,0-.7-.291-6.43-5.23-11.427-11.033-11.169a9.632,9.632,0,0,0-4.826,1.551l0-.018c-.324-7.157-5.117-12.745-10.716-12.5-4.789.217-8.6,4.638-9.408,10.4a9.188,9.188,0,0,0-7.609-4c-5.6.253-9.867,6.506-9.533,13.969a16.688,16.688,0,0,0,.306,2.554,8.753,8.753,0,0,0-10.68,8.834c-5.65.433-9.532,3.591-9.849,7.2-1.753,19.645,76.806,5.6,76.806,5.6,4.665-.208,8.235-5.087,7.977-10.891s-4.249-10.343-8.912-10.135Z" transform="translate(-30.84 -37.78)" fill="#d75434"/>
        <path id="패스_256" data-name="패스 256" d="M244.068,341.3c10.2.119,20.168,8.455,20.492,18.656a20.485,20.485,0,0,1,31.893,19.49c-1.268,10-7.344,21.5-25.278,30.153-20.942,10.1-70.746,18.654-91.893-3.522-25.1-26.332,7.551-64.366,40.252-49.633,5.527-8.163,14.119-15.265,24.534-15.135Z" transform="translate(-18.063 -34.613)" fill="#f9a91a"/>
      </g>
      <rect id="사각형_163" data-name="사각형 163" width="382" height="386" transform="translate(-7170 -23697)" fill="#fff" opacity="0"/>
    </g>
  </g>
</svg>
